<mxfile host="65bd71144e">
    <diagram id="FXR6FbwnGYv15yHFnkv-" name="Page-1">
        <mxGraphModel dx="3353" dy="4630" grid="1" gridSize="10" guides="1" tooltips="1" connect="1" arrows="1" fold="1" page="1" pageScale="1" pageWidth="2827" pageHeight="2583" background="#ffffff" math="0" shadow="0">
            <root>
                <mxCell id="0"/>
                <mxCell id="1" parent="0"/>
                <mxCell id="2" value="&lt;b&gt;User&lt;/b&gt;" style="swimlane;fontStyle=0;childLayout=stackLayout;horizontal=1;startSize=30;horizontalStack=0;resizeParent=1;resizeParentMax=0;resizeLast=0;collapsible=1;marginBottom=0;whiteSpace=wrap;html=1;rounded=0;" parent="1" vertex="1">
                    <mxGeometry x="706" y="590" width="140" height="240" as="geometry"/>
                </mxCell>
                <mxCell id="3" value="+ Name: string" style="text;strokeColor=none;fillColor=none;align=left;verticalAlign=middle;spacingLeft=4;spacingRight=4;overflow=hidden;points=[[0,0.5],[1,0.5]];portConstraint=eastwest;rotatable=0;whiteSpace=wrap;html=1;rounded=0;" parent="2" vertex="1">
                    <mxGeometry y="30" width="140" height="30" as="geometry"/>
                </mxCell>
                <mxCell id="4" value="+ Email: string" style="text;strokeColor=none;fillColor=none;align=left;verticalAlign=middle;spacingLeft=4;spacingRight=4;overflow=hidden;points=[[0,0.5],[1,0.5]];portConstraint=eastwest;rotatable=0;whiteSpace=wrap;html=1;rounded=0;" parent="2" vertex="1">
                    <mxGeometry y="60" width="140" height="30" as="geometry"/>
                </mxCell>
                <mxCell id="5" value="+ UserName: string" style="text;strokeColor=none;fillColor=none;align=left;verticalAlign=middle;spacingLeft=4;spacingRight=4;overflow=hidden;points=[[0,0.5],[1,0.5]];portConstraint=eastwest;rotatable=0;whiteSpace=wrap;html=1;rounded=0;" parent="2" vertex="1">
                    <mxGeometry y="90" width="140" height="30" as="geometry"/>
                </mxCell>
                <mxCell id="9" value="+ PasswordHash: string" style="text;strokeColor=none;fillColor=none;align=left;verticalAlign=middle;spacingLeft=4;spacingRight=4;overflow=hidden;points=[[0,0.5],[1,0.5]];portConstraint=eastwest;rotatable=0;whiteSpace=wrap;html=1;rounded=0;" parent="2" vertex="1">
                    <mxGeometry y="120" width="140" height="30" as="geometry"/>
                </mxCell>
                <mxCell id="10" value="+ CreatedAt Date&lt;span style=&quot;background-color: transparent;&quot;&gt;Time&lt;/span&gt;" style="text;strokeColor=none;fillColor=none;align=left;verticalAlign=middle;spacingLeft=4;spacingRight=4;overflow=hidden;points=[[0,0.5],[1,0.5]];portConstraint=eastwest;rotatable=0;whiteSpace=wrap;html=1;rounded=0;" parent="2" vertex="1">
                    <mxGeometry y="150" width="140" height="30" as="geometry"/>
                </mxCell>
                <mxCell id="279" value="+ IsBanned bool" style="text;strokeColor=none;fillColor=none;align=left;verticalAlign=middle;spacingLeft=4;spacingRight=4;overflow=hidden;points=[[0,0.5],[1,0.5]];portConstraint=eastwest;rotatable=0;whiteSpace=wrap;html=1;rounded=0;" parent="2" vertex="1">
                    <mxGeometry y="180" width="140" height="30" as="geometry"/>
                </mxCell>
                <mxCell id="278" value="+ BannedTo Date&lt;span style=&quot;background-color: transparent;&quot;&gt;Time&lt;/span&gt;" style="text;strokeColor=none;fillColor=none;align=left;verticalAlign=middle;spacingLeft=4;spacingRight=4;overflow=hidden;points=[[0,0.5],[1,0.5]];portConstraint=eastwest;rotatable=0;whiteSpace=wrap;html=1;rounded=0;" parent="2" vertex="1">
                    <mxGeometry y="210" width="140" height="30" as="geometry"/>
                </mxCell>
                <mxCell id="15" value="&lt;b&gt;Role&lt;/b&gt;" style="swimlane;fontStyle=0;childLayout=stackLayout;horizontal=1;startSize=30;horizontalStack=0;resizeParent=1;resizeParentMax=0;resizeLast=0;collapsible=1;marginBottom=0;whiteSpace=wrap;html=1;rounded=0;" parent="1" vertex="1">
                    <mxGeometry x="910" y="940" width="140" height="60" as="geometry"/>
                </mxCell>
                <mxCell id="17" value="+ Name: string" style="text;strokeColor=none;fillColor=none;align=left;verticalAlign=middle;spacingLeft=4;spacingRight=4;overflow=hidden;points=[[0,0.5],[1,0.5]];portConstraint=eastwest;rotatable=0;whiteSpace=wrap;html=1;rounded=0;" parent="15" vertex="1">
                    <mxGeometry y="30" width="140" height="30" as="geometry"/>
                </mxCell>
                <mxCell id="20" value="&lt;b&gt;Post&lt;/b&gt;" style="swimlane;fontStyle=0;childLayout=stackLayout;horizontal=1;startSize=30;horizontalStack=0;resizeParent=1;resizeParentMax=0;resizeLast=0;collapsible=1;marginBottom=0;whiteSpace=wrap;html=1;rounded=0;" parent="1" vertex="1">
                    <mxGeometry x="2580" y="390" width="140" height="240" as="geometry"/>
                </mxCell>
                <mxCell id="21" value="+ Title: string" style="text;strokeColor=none;fillColor=none;align=left;verticalAlign=middle;spacingLeft=4;spacingRight=4;overflow=hidden;points=[[0,0.5],[1,0.5]];portConstraint=eastwest;rotatable=0;whiteSpace=wrap;html=1;rounded=0;" parent="20" vertex="1">
                    <mxGeometry y="30" width="140" height="30" as="geometry"/>
                </mxCell>
                <mxCell id="51" value="+ Text: string" style="text;strokeColor=none;fillColor=none;align=left;verticalAlign=middle;spacingLeft=4;spacingRight=4;overflow=hidden;points=[[0,0.5],[1,0.5]];portConstraint=eastwest;rotatable=0;whiteSpace=wrap;html=1;rounded=0;" parent="20" vertex="1">
                    <mxGeometry y="60" width="140" height="30" as="geometry"/>
                </mxCell>
                <mxCell id="52" value="+ File: string" style="text;strokeColor=none;fillColor=none;align=left;verticalAlign=middle;spacingLeft=4;spacingRight=4;overflow=hidden;points=[[0,0.5],[1,0.5]];portConstraint=eastwest;rotatable=0;whiteSpace=wrap;html=1;rounded=0;" parent="20" vertex="1">
                    <mxGeometry y="90" width="140" height="30" as="geometry"/>
                </mxCell>
                <mxCell id="46" value="+ CreatedAt: DateTime" style="text;strokeColor=none;fillColor=none;align=left;verticalAlign=middle;spacingLeft=4;spacingRight=4;overflow=hidden;points=[[0,0.5],[1,0.5]];portConstraint=eastwest;rotatable=0;whiteSpace=wrap;html=1;rounded=0;" parent="20" vertex="1">
                    <mxGeometry y="120" width="140" height="30" as="geometry"/>
                </mxCell>
                <mxCell id="91" value="+ CommentId: Guid" style="text;strokeColor=none;fillColor=none;align=left;verticalAlign=middle;spacingLeft=4;spacingRight=4;overflow=hidden;points=[[0,0.5],[1,0.5]];portConstraint=eastwest;rotatable=0;whiteSpace=wrap;html=1;rounded=0;" parent="20" vertex="1">
                    <mxGeometry y="150" width="140" height="30" as="geometry"/>
                </mxCell>
                <mxCell id="93" value="+ UserId: Guid" style="text;strokeColor=none;fillColor=none;align=left;verticalAlign=middle;spacingLeft=4;spacingRight=4;overflow=hidden;points=[[0,0.5],[1,0.5]];portConstraint=eastwest;rotatable=0;whiteSpace=wrap;html=1;rounded=0;" parent="20" vertex="1">
                    <mxGeometry y="180" width="140" height="30" as="geometry"/>
                </mxCell>
                <mxCell id="103" value="+ TopicId: Guid" style="text;strokeColor=none;fillColor=none;align=left;verticalAlign=middle;spacingLeft=4;spacingRight=4;overflow=hidden;points=[[0,0.5],[1,0.5]];portConstraint=eastwest;rotatable=0;whiteSpace=wrap;html=1;rounded=0;" parent="20" vertex="1">
                    <mxGeometry y="210" width="140" height="30" as="geometry"/>
                </mxCell>
                <mxCell id="24" value="&lt;b&gt;Topic&lt;/b&gt;" style="swimlane;fontStyle=0;childLayout=stackLayout;horizontal=1;startSize=30;horizontalStack=0;resizeParent=1;resizeParentMax=0;resizeLast=0;collapsible=1;marginBottom=0;whiteSpace=wrap;html=1;rounded=0;" parent="1" vertex="1">
                    <mxGeometry x="1520" y="450" width="140" height="90" as="geometry"/>
                </mxCell>
                <mxCell id="25" value="+ Name: string" style="text;strokeColor=none;fillColor=none;align=left;verticalAlign=middle;spacingLeft=4;spacingRight=4;overflow=hidden;points=[[0,0.5],[1,0.5]];portConstraint=eastwest;rotatable=0;whiteSpace=wrap;html=1;rounded=0;" parent="24" vertex="1">
                    <mxGeometry y="30" width="140" height="30" as="geometry"/>
                </mxCell>
                <mxCell id="26" value="+ CreatedAt: DateTime" style="text;strokeColor=none;fillColor=none;align=left;verticalAlign=middle;spacingLeft=4;spacingRight=4;overflow=hidden;points=[[0,0.5],[1,0.5]];portConstraint=eastwest;rotatable=0;whiteSpace=wrap;html=1;rounded=0;" parent="24" vertex="1">
                    <mxGeometry y="60" width="140" height="30" as="geometry"/>
                </mxCell>
                <mxCell id="42" value="Comment" style="swimlane;fontStyle=1;childLayout=stackLayout;horizontal=1;startSize=26;horizontalStack=0;resizeParent=1;resizeParentMax=0;resizeLast=0;collapsible=1;marginBottom=0;align=center;fontSize=12;rounded=0;" parent="1" vertex="1">
                    <mxGeometry x="2750" y="870" width="150" height="170" as="geometry"/>
                </mxCell>
                <mxCell id="43" value="+ Text: string" style="text;strokeColor=none;fillColor=none;spacingLeft=4;spacingRight=4;overflow=hidden;rotatable=0;points=[[0,0.5],[1,0.5]];portConstraint=eastwest;fontSize=12;whiteSpace=wrap;html=1;rounded=0;" parent="42" vertex="1">
                    <mxGeometry y="26" width="150" height="24" as="geometry"/>
                </mxCell>
                <mxCell id="54" value="+ File: string" style="text;strokeColor=none;fillColor=none;spacingLeft=4;spacingRight=4;overflow=hidden;rotatable=0;points=[[0,0.5],[1,0.5]];portConstraint=eastwest;fontSize=12;whiteSpace=wrap;html=1;rounded=0;" parent="42" vertex="1">
                    <mxGeometry y="50" width="150" height="30" as="geometry"/>
                </mxCell>
                <mxCell id="55" value="+ CreatedAt: DateTime" style="text;strokeColor=none;fillColor=none;spacingLeft=4;spacingRight=4;overflow=hidden;rotatable=0;points=[[0,0.5],[1,0.5]];portConstraint=eastwest;fontSize=12;whiteSpace=wrap;html=1;rounded=0;" parent="42" vertex="1">
                    <mxGeometry y="80" width="150" height="30" as="geometry"/>
                </mxCell>
                <mxCell id="90" value="+UserId: Guid" style="text;strokeColor=none;fillColor=none;spacingLeft=4;spacingRight=4;overflow=hidden;rotatable=0;points=[[0,0.5],[1,0.5]];portConstraint=eastwest;fontSize=12;whiteSpace=wrap;html=1;rounded=0;" parent="42" vertex="1">
                    <mxGeometry y="110" width="150" height="30" as="geometry"/>
                </mxCell>
                <mxCell id="453" value="+PostId: Guid" style="text;strokeColor=none;fillColor=none;spacingLeft=4;spacingRight=4;overflow=hidden;rotatable=0;points=[[0,0.5],[1,0.5]];portConstraint=eastwest;fontSize=12;whiteSpace=wrap;html=1;rounded=0;" vertex="1" parent="42">
                    <mxGeometry y="140" width="150" height="30" as="geometry"/>
                </mxCell>
                <mxCell id="57" value="&lt;font style=&quot;font-size: 32px;&quot;&gt;TrashTalk — Class Diagram&lt;/font&gt;" style="text;html=1;align=center;verticalAlign=middle;whiteSpace=wrap;rounded=0;" parent="1" vertex="1">
                    <mxGeometry x="186" y="40" width="456" height="30" as="geometry"/>
                </mxCell>
                <mxCell id="58" value="Category" style="swimlane;fontStyle=1;childLayout=stackLayout;horizontal=1;startSize=26;horizontalStack=0;resizeParent=1;resizeParentMax=0;resizeLast=0;collapsible=1;marginBottom=0;align=center;fontSize=12;" parent="1" vertex="1">
                    <mxGeometry x="1680" y="907" width="160" height="56" as="geometry"/>
                </mxCell>
                <mxCell id="59" value="+ Name: string" style="text;strokeColor=none;fillColor=none;spacingLeft=4;spacingRight=4;overflow=hidden;rotatable=0;points=[[0,0.5],[1,0.5]];portConstraint=eastwest;fontSize=12;whiteSpace=wrap;html=1;" parent="58" vertex="1">
                    <mxGeometry y="26" width="160" height="30" as="geometry"/>
                </mxCell>
                <mxCell id="84" value="&lt;b&gt;UserRole&lt;/b&gt;" style="swimlane;fontStyle=0;childLayout=stackLayout;horizontal=1;startSize=30;horizontalStack=0;resizeParent=1;resizeParentMax=0;resizeLast=0;collapsible=1;marginBottom=0;whiteSpace=wrap;html=1;rounded=0;" parent="1" vertex="1">
                    <mxGeometry x="670" y="940" width="140" height="90" as="geometry"/>
                </mxCell>
                <mxCell id="85" value="+ UserId: Guid" style="text;strokeColor=none;fillColor=none;align=left;verticalAlign=middle;spacingLeft=4;spacingRight=4;overflow=hidden;points=[[0,0.5],[1,0.5]];portConstraint=eastwest;rotatable=0;whiteSpace=wrap;html=1;rounded=0;" parent="84" vertex="1">
                    <mxGeometry y="30" width="140" height="30" as="geometry"/>
                </mxCell>
                <mxCell id="86" value="+ RoleId: Guid" style="text;strokeColor=none;fillColor=none;align=left;verticalAlign=middle;spacingLeft=4;spacingRight=4;overflow=hidden;points=[[0,0.5],[1,0.5]];portConstraint=eastwest;rotatable=0;whiteSpace=wrap;html=1;rounded=0;" parent="84" vertex="1">
                    <mxGeometry y="60" width="140" height="30" as="geometry"/>
                </mxCell>
                <mxCell id="97" value="&lt;b&gt;TopicCategory&lt;/b&gt;" style="swimlane;fontStyle=0;childLayout=stackLayout;horizontal=1;startSize=30;horizontalStack=0;resizeParent=1;resizeParentMax=0;resizeLast=0;collapsible=1;marginBottom=0;whiteSpace=wrap;html=1;rounded=0;" parent="1" vertex="1">
                    <mxGeometry x="1680" y="767" width="140" height="90" as="geometry"/>
                </mxCell>
                <mxCell id="98" value="+ TopicId: Guid" style="text;strokeColor=none;fillColor=none;align=left;verticalAlign=middle;spacingLeft=4;spacingRight=4;overflow=hidden;points=[[0,0.5],[1,0.5]];portConstraint=eastwest;rotatable=0;whiteSpace=wrap;html=1;rounded=0;" parent="97" vertex="1">
                    <mxGeometry y="30" width="140" height="30" as="geometry"/>
                </mxCell>
                <mxCell id="99" value="+ CategoryId: Guid" style="text;strokeColor=none;fillColor=none;align=left;verticalAlign=middle;spacingLeft=4;spacingRight=4;overflow=hidden;points=[[0,0.5],[1,0.5]];portConstraint=eastwest;rotatable=0;whiteSpace=wrap;html=1;rounded=0;" parent="97" vertex="1">
                    <mxGeometry y="60" width="140" height="30" as="geometry"/>
                </mxCell>
                <mxCell id="106" value="&lt;div&gt;&lt;span style=&quot;background-color: transparent;&quot;&gt;&lt;i&gt;RepositoryBase&lt;/i&gt;&lt;/span&gt;&lt;/div&gt;" style="swimlane;fontStyle=0;childLayout=stackLayout;horizontal=1;startSize=30;horizontalStack=0;resizeParent=1;resizeParentMax=0;resizeLast=0;collapsible=1;marginBottom=0;whiteSpace=wrap;html=1;rounded=0;" parent="1" vertex="1">
                    <mxGeometry x="778.5" y="100" width="190" height="210" as="geometry"/>
                </mxCell>
                <mxCell id="107" value="# _context: AppDbContext" style="text;strokeColor=none;fillColor=none;align=left;verticalAlign=middle;spacingLeft=4;spacingRight=4;overflow=hidden;points=[[0,0.5],[1,0.5]];portConstraint=eastwest;rotatable=0;whiteSpace=wrap;html=1;rounded=0;" parent="106" vertex="1">
                    <mxGeometry y="30" width="190" height="30" as="geometry"/>
                </mxCell>
                <mxCell id="109" value="GetAllAsync(): IEnumereble&amp;lt;T&amp;gt;" style="text;strokeColor=none;fillColor=none;align=left;verticalAlign=middle;spacingLeft=4;spacingRight=4;overflow=hidden;points=[[0,0.5],[1,0.5]];portConstraint=eastwest;rotatable=0;whiteSpace=wrap;html=1;rounded=0;" parent="106" vertex="1">
                    <mxGeometry y="60" width="190" height="30" as="geometry"/>
                </mxCell>
                <mxCell id="112" value="" style="endArrow=none;html=1;entryX=-0.002;entryY=-0.006;entryDx=0;entryDy=0;entryPerimeter=0;exitX=0.999;exitY=0.003;exitDx=0;exitDy=0;exitPerimeter=0;" parent="106" source="109" target="109" edge="1">
                    <mxGeometry width="50" height="50" relative="1" as="geometry">
                        <mxPoint x="170" y="60" as="sourcePoint"/>
                        <mxPoint x="3" y="60" as="targetPoint"/>
                    </mxGeometry>
                </mxCell>
                <mxCell id="113" value="GetByIdAsync(): T?" style="text;strokeColor=none;fillColor=none;align=left;verticalAlign=middle;spacingLeft=4;spacingRight=4;overflow=hidden;points=[[0,0.5],[1,0.5]];portConstraint=eastwest;rotatable=0;whiteSpace=wrap;html=1;rounded=0;" parent="106" vertex="1">
                    <mxGeometry y="90" width="190" height="30" as="geometry"/>
                </mxCell>
                <mxCell id="114" value="AddAsync()" style="text;strokeColor=none;fillColor=none;align=left;verticalAlign=middle;spacingLeft=4;spacingRight=4;overflow=hidden;points=[[0,0.5],[1,0.5]];portConstraint=eastwest;rotatable=0;whiteSpace=wrap;html=1;rounded=0;" parent="106" vertex="1">
                    <mxGeometry y="120" width="190" height="30" as="geometry"/>
                </mxCell>
                <mxCell id="115" value="UpdateAsync()" style="text;strokeColor=none;fillColor=none;align=left;verticalAlign=middle;spacingLeft=4;spacingRight=4;overflow=hidden;points=[[0,0.5],[1,0.5]];portConstraint=eastwest;rotatable=0;whiteSpace=wrap;html=1;rounded=0;" parent="106" vertex="1">
                    <mxGeometry y="150" width="190" height="30" as="geometry"/>
                </mxCell>
                <mxCell id="116" value="DeleteAsync()" style="text;strokeColor=none;fillColor=none;align=left;verticalAlign=middle;spacingLeft=4;spacingRight=4;overflow=hidden;points=[[0,0.5],[1,0.5]];portConstraint=eastwest;rotatable=0;whiteSpace=wrap;html=1;rounded=0;" parent="106" vertex="1">
                    <mxGeometry y="180" width="190" height="30" as="geometry"/>
                </mxCell>
                <mxCell id="117" value="&lt;b&gt;UserRepository&lt;/b&gt;" style="swimlane;fontStyle=0;childLayout=stackLayout;horizontal=1;startSize=30;horizontalStack=0;resizeParent=1;resizeParentMax=0;resizeLast=0;collapsible=1;marginBottom=0;whiteSpace=wrap;html=1;rounded=0;" parent="1" vertex="1">
                    <mxGeometry x="430" y="340" width="285" height="180" as="geometry"/>
                </mxCell>
                <mxCell id="118" value="- _userManager: UserManager(User)" style="text;strokeColor=none;fillColor=none;align=left;verticalAlign=middle;spacingLeft=4;spacingRight=4;overflow=hidden;points=[[0,0.5],[1,0.5]];portConstraint=eastwest;rotatable=0;whiteSpace=wrap;html=1;rounded=0;" parent="117" vertex="1">
                    <mxGeometry y="30" width="285" height="30" as="geometry"/>
                </mxCell>
                <mxCell id="119" value="GetByEmailAsync(string): User" style="text;strokeColor=none;fillColor=none;align=left;verticalAlign=middle;spacingLeft=4;spacingRight=4;overflow=hidden;points=[[0,0.5],[1,0.5]];portConstraint=eastwest;rotatable=0;whiteSpace=wrap;html=1;rounded=0;" parent="117" vertex="1">
                    <mxGeometry y="60" width="285" height="30" as="geometry"/>
                </mxCell>
                <mxCell id="120" value="" style="endArrow=none;html=1;entryX=-0.002;entryY=-0.006;entryDx=0;entryDy=0;entryPerimeter=0;exitX=0.999;exitY=0.003;exitDx=0;exitDy=0;exitPerimeter=0;" parent="117" source="119" target="119" edge="1">
                    <mxGeometry width="50" height="50" relative="1" as="geometry">
                        <mxPoint x="170" y="60" as="sourcePoint"/>
                        <mxPoint x="3" y="60" as="targetPoint"/>
                    </mxGeometry>
                </mxCell>
                <mxCell id="121" value="GetUsersByRoleAsync(string):&amp;nbsp;IEnumerable&amp;lt;User&amp;gt;" style="text;strokeColor=none;fillColor=none;align=left;verticalAlign=middle;spacingLeft=4;spacingRight=4;overflow=hidden;points=[[0,0.5],[1,0.5]];portConstraint=eastwest;rotatable=0;whiteSpace=wrap;html=1;rounded=0;" parent="117" vertex="1">
                    <mxGeometry y="90" width="285" height="30" as="geometry"/>
                </mxCell>
                <mxCell id="318" value="BanByEmailAsync(string): string" style="text;strokeColor=none;fillColor=none;align=left;verticalAlign=middle;spacingLeft=4;spacingRight=4;overflow=hidden;points=[[0,0.5],[1,0.5]];portConstraint=eastwest;rotatable=0;whiteSpace=wrap;html=1;rounded=0;" parent="117" vertex="1">
                    <mxGeometry y="120" width="285" height="30" as="geometry"/>
                </mxCell>
                <mxCell id="319" value="ChangeInfoAsync(string?, string?): string" style="text;strokeColor=none;fillColor=none;align=left;verticalAlign=middle;spacingLeft=4;spacingRight=4;overflow=hidden;points=[[0,0.5],[1,0.5]];portConstraint=eastwest;rotatable=0;whiteSpace=wrap;html=1;rounded=0;" parent="117" vertex="1">
                    <mxGeometry y="150" width="285" height="30" as="geometry"/>
                </mxCell>
                <mxCell id="126" value="&lt;b&gt;UserService&lt;/b&gt;" style="swimlane;fontStyle=0;childLayout=stackLayout;horizontal=1;startSize=30;horizontalStack=0;resizeParent=1;resizeParentMax=0;resizeLast=0;collapsible=1;marginBottom=0;whiteSpace=wrap;html=1;rounded=0;" parent="1" vertex="1">
                    <mxGeometry x="306" y="590" width="260" height="300" as="geometry"/>
                </mxCell>
                <mxCell id="134" value="&lt;span style=&quot;color: rgb(0, 0, 0);&quot;&gt;- _userManager: UserManager(User)&lt;/span&gt;" style="text;strokeColor=none;fillColor=none;align=left;verticalAlign=middle;spacingLeft=4;spacingRight=4;overflow=hidden;points=[[0,0.5],[1,0.5]];portConstraint=eastwest;rotatable=0;whiteSpace=wrap;html=1;rounded=0;" parent="126" vertex="1">
                    <mxGeometry y="30" width="260" height="30" as="geometry"/>
                </mxCell>
                <mxCell id="127" value="&lt;span style=&quot;color: rgb(0, 0, 0);&quot;&gt;- _singInManager: SignInManager(User)&lt;/span&gt;" style="text;strokeColor=none;fillColor=none;align=left;verticalAlign=middle;spacingLeft=4;spacingRight=4;overflow=hidden;points=[[0,0.5],[1,0.5]];portConstraint=eastwest;rotatable=0;whiteSpace=wrap;html=1;rounded=0;" parent="126" vertex="1">
                    <mxGeometry y="60" width="260" height="30" as="geometry"/>
                </mxCell>
                <mxCell id="128" value="RegisterUserAsync(string, string): string" style="text;strokeColor=none;fillColor=none;align=left;verticalAlign=middle;spacingLeft=4;spacingRight=4;overflow=hidden;points=[[0,0.5],[1,0.5]];portConstraint=eastwest;rotatable=0;whiteSpace=wrap;html=1;rounded=0;" parent="126" vertex="1">
                    <mxGeometry y="90" width="260" height="30" as="geometry"/>
                </mxCell>
                <mxCell id="129" value="" style="endArrow=none;html=1;entryX=-0.002;entryY=-0.006;entryDx=0;entryDy=0;entryPerimeter=0;exitX=0.999;exitY=0.003;exitDx=0;exitDy=0;exitPerimeter=0;" parent="126" source="128" target="128" edge="1">
                    <mxGeometry width="50" height="50" relative="1" as="geometry">
                        <mxPoint x="170" y="60" as="sourcePoint"/>
                        <mxPoint x="3" y="60" as="targetPoint"/>
                    </mxGeometry>
                </mxCell>
                <mxCell id="135" value="LoginUserAsync(string, string): string" style="text;strokeColor=none;fillColor=none;align=left;verticalAlign=middle;spacingLeft=4;spacingRight=4;overflow=hidden;points=[[0,0.5],[1,0.5]];portConstraint=eastwest;rotatable=0;whiteSpace=wrap;html=1;rounded=0;" parent="126" vertex="1">
                    <mxGeometry y="120" width="260" height="30" as="geometry"/>
                </mxCell>
                <mxCell id="277" value="DeleteUserAsync(string): string" style="text;strokeColor=none;fillColor=none;align=left;verticalAlign=middle;spacingLeft=4;spacingRight=4;overflow=hidden;points=[[0,0.5],[1,0.5]];portConstraint=eastwest;rotatable=0;whiteSpace=wrap;html=1;rounded=0;" parent="126" vertex="1">
                    <mxGeometry y="150" width="260" height="30" as="geometry"/>
                </mxCell>
                <mxCell id="297" value="BanUserAsync(string, bool): string" style="text;strokeColor=none;fillColor=none;align=left;verticalAlign=middle;spacingLeft=4;spacingRight=4;overflow=hidden;points=[[0,0.5],[1,0.5]];portConstraint=eastwest;rotatable=0;whiteSpace=wrap;html=1;rounded=0;" parent="126" vertex="1">
                    <mxGeometry y="180" width="260" height="30" as="geometry"/>
                </mxCell>
                <mxCell id="301" value="UpdateUserRoleAsync(string): string" style="text;strokeColor=none;fillColor=none;align=left;verticalAlign=middle;spacingLeft=4;spacingRight=4;overflow=hidden;points=[[0,0.5],[1,0.5]];portConstraint=eastwest;rotatable=0;whiteSpace=wrap;html=1;rounded=0;" parent="126" vertex="1">
                    <mxGeometry y="210" width="260" height="30" as="geometry"/>
                </mxCell>
                <mxCell id="321" value="ChangeUserInfoAsync(string, string): string" style="text;strokeColor=none;fillColor=none;align=left;verticalAlign=middle;spacingLeft=4;spacingRight=4;overflow=hidden;points=[[0,0.5],[1,0.5]];portConstraint=eastwest;rotatable=0;whiteSpace=wrap;html=1;rounded=0;" parent="126" vertex="1">
                    <mxGeometry y="240" width="260" height="30" as="geometry"/>
                </mxCell>
                <mxCell id="136" value="LogoutAsync()" style="text;strokeColor=none;fillColor=none;align=left;verticalAlign=middle;spacingLeft=4;spacingRight=4;overflow=hidden;points=[[0,0.5],[1,0.5]];portConstraint=eastwest;rotatable=0;whiteSpace=wrap;html=1;rounded=0;" parent="126" vertex="1">
                    <mxGeometry y="270" width="260" height="30" as="geometry"/>
                </mxCell>
                <mxCell id="137" value="Use" style="endArrow=open;endSize=12;dashed=1;html=1;entryX=0.365;entryY=1.033;entryDx=0;entryDy=0;entryPerimeter=0;exitX=0.5;exitY=0;exitDx=0;exitDy=0;" parent="1" source="126" target="319" edge="1">
                    <mxGeometry width="160" relative="1" as="geometry">
                        <mxPoint x="416" y="587" as="sourcePoint"/>
                        <mxPoint x="306" y="510" as="targetPoint"/>
                    </mxGeometry>
                </mxCell>
                <mxCell id="139" value="Use" style="endArrow=open;endSize=12;dashed=1;html=1;entryX=0.25;entryY=0;entryDx=0;entryDy=0;exitX=0.995;exitY=0.129;exitDx=0;exitDy=0;exitPerimeter=0;" parent="1" source="117" target="2" edge="1">
                    <mxGeometry width="160" relative="1" as="geometry">
                        <mxPoint x="617" y="550" as="sourcePoint"/>
                        <mxPoint x="616" y="460" as="targetPoint"/>
                    </mxGeometry>
                </mxCell>
                <mxCell id="141" value="&lt;b&gt;UserController&lt;/b&gt;" style="swimlane;fontStyle=0;childLayout=stackLayout;horizontal=1;startSize=30;horizontalStack=0;resizeParent=1;resizeParentMax=0;resizeLast=0;collapsible=1;marginBottom=0;whiteSpace=wrap;html=1;rounded=0;" parent="1" vertex="1">
                    <mxGeometry x="306" y="955" width="284" height="270" as="geometry"/>
                </mxCell>
                <mxCell id="142" value="&lt;span style=&quot;color: rgb(0, 0, 0);&quot;&gt;- _userService: UserService&lt;/span&gt;" style="text;strokeColor=none;fillColor=none;align=left;verticalAlign=middle;spacingLeft=4;spacingRight=4;overflow=hidden;points=[[0,0.5],[1,0.5]];portConstraint=eastwest;rotatable=0;whiteSpace=wrap;html=1;rounded=0;" parent="141" vertex="1">
                    <mxGeometry y="30" width="284" height="30" as="geometry"/>
                </mxCell>
                <mxCell id="145" value="" style="endArrow=none;html=1;entryX=-0.002;entryY=-0.006;entryDx=0;entryDy=0;entryPerimeter=0;exitX=0.998;exitY=-0.005;exitDx=0;exitDy=0;exitPerimeter=0;" parent="141" source="146" edge="1">
                    <mxGeometry width="50" height="50" relative="1" as="geometry">
                        <mxPoint x="259.7399999999998" y="60.08999999999992" as="sourcePoint"/>
                        <mxPoint x="-0.5199999999999818" y="59.819999999999936" as="targetPoint"/>
                    </mxGeometry>
                </mxCell>
                <mxCell id="146" value="Login(LoginViewModel): IActionResult" style="text;strokeColor=none;fillColor=none;align=left;verticalAlign=middle;spacingLeft=4;spacingRight=4;overflow=hidden;points=[[0,0.5],[1,0.5]];portConstraint=eastwest;rotatable=0;whiteSpace=wrap;html=1;rounded=0;" parent="141" vertex="1">
                    <mxGeometry y="60" width="284" height="30" as="geometry"/>
                </mxCell>
                <mxCell id="148" value="Register(RegisterViewModel): IActionResult" style="text;strokeColor=none;fillColor=none;align=left;verticalAlign=middle;spacingLeft=4;spacingRight=4;overflow=hidden;points=[[0,0.5],[1,0.5]];portConstraint=eastwest;rotatable=0;whiteSpace=wrap;html=1;rounded=0;" parent="141" vertex="1">
                    <mxGeometry y="90" width="284" height="30" as="geometry"/>
                </mxCell>
                <mxCell id="282" value="Ban(BanViewModel): IActionResult" style="text;strokeColor=none;fillColor=none;align=left;verticalAlign=middle;spacingLeft=4;spacingRight=4;overflow=hidden;points=[[0,0.5],[1,0.5]];portConstraint=eastwest;rotatable=0;whiteSpace=wrap;html=1;rounded=0;" parent="141" vertex="1">
                    <mxGeometry y="120" width="284" height="30" as="geometry"/>
                </mxCell>
                <mxCell id="300" value="UpdateRole(UpdateRoleViewModel): IActionResult" style="text;strokeColor=none;fillColor=none;align=left;verticalAlign=middle;spacingLeft=4;spacingRight=4;overflow=hidden;points=[[0,0.5],[1,0.5]];portConstraint=eastwest;rotatable=0;whiteSpace=wrap;html=1;rounded=0;" parent="141" vertex="1">
                    <mxGeometry y="150" width="284" height="30" as="geometry"/>
                </mxCell>
                <mxCell id="323" value="ChangeInfo(ChangeInfoViewModel): IActionResult" style="text;strokeColor=none;fillColor=none;align=left;verticalAlign=middle;spacingLeft=4;spacingRight=4;overflow=hidden;points=[[0,0.5],[1,0.5]];portConstraint=eastwest;rotatable=0;whiteSpace=wrap;html=1;rounded=0;" parent="141" vertex="1">
                    <mxGeometry y="180" width="284" height="30" as="geometry"/>
                </mxCell>
                <mxCell id="296" value="Delete(string): IActionResult" style="text;strokeColor=none;fillColor=none;align=left;verticalAlign=middle;spacingLeft=4;spacingRight=4;overflow=hidden;points=[[0,0.5],[1,0.5]];portConstraint=eastwest;rotatable=0;whiteSpace=wrap;html=1;rounded=0;" parent="141" vertex="1">
                    <mxGeometry y="210" width="284" height="30" as="geometry"/>
                </mxCell>
                <mxCell id="147" value="Logout(): IActionResult" style="text;strokeColor=none;fillColor=none;align=left;verticalAlign=middle;spacingLeft=4;spacingRight=4;overflow=hidden;points=[[0,0.5],[1,0.5]];portConstraint=eastwest;rotatable=0;whiteSpace=wrap;html=1;rounded=0;" parent="141" vertex="1">
                    <mxGeometry y="240" width="284" height="30" as="geometry"/>
                </mxCell>
                <mxCell id="149" value="Use" style="endArrow=open;endSize=12;dashed=1;html=1;entryX=0.501;entryY=1.061;entryDx=0;entryDy=0;entryPerimeter=0;exitX=0.5;exitY=0;exitDx=0;exitDy=0;" parent="1" source="141" target="136" edge="1">
                    <mxGeometry width="160" relative="1" as="geometry">
                        <mxPoint x="647" y="837" as="sourcePoint"/>
                        <mxPoint x="646" y="747" as="targetPoint"/>
                    </mxGeometry>
                </mxCell>
                <mxCell id="150" value="Use" style="endArrow=open;endSize=12;dashed=1;html=1;exitX=1.001;exitY=0.071;exitDx=0;exitDy=0;exitPerimeter=0;" parent="1" source="126" edge="1">
                    <mxGeometry width="160" relative="1" as="geometry">
                        <mxPoint x="596" y="610" as="sourcePoint"/>
                        <mxPoint x="703.5" y="603" as="targetPoint"/>
                    </mxGeometry>
                </mxCell>
                <mxCell id="152" value="&lt;b&gt;TopicRepository&lt;/b&gt;" style="swimlane;fontStyle=0;childLayout=stackLayout;horizontal=1;startSize=30;horizontalStack=0;resizeParent=1;resizeParentMax=0;resizeLast=0;collapsible=1;marginBottom=0;whiteSpace=wrap;html=1;rounded=0;" parent="1" vertex="1">
                    <mxGeometry x="1060" y="380" width="310" height="90" as="geometry"/>
                </mxCell>
                <mxCell id="154" value="GetByNameAsync(string): Topic" style="text;strokeColor=none;fillColor=none;align=left;verticalAlign=middle;spacingLeft=4;spacingRight=4;overflow=hidden;points=[[0,0.5],[1,0.5]];portConstraint=eastwest;rotatable=0;whiteSpace=wrap;html=1;rounded=0;" parent="152" vertex="1">
                    <mxGeometry y="30" width="310" height="30" as="geometry"/>
                </mxCell>
                <mxCell id="155" value="" style="endArrow=none;html=1;entryX=-0.002;entryY=-0.006;entryDx=0;entryDy=0;entryPerimeter=0;exitX=0.999;exitY=0.003;exitDx=0;exitDy=0;exitPerimeter=0;" parent="152" source="154" target="154" edge="1">
                    <mxGeometry width="50" height="50" relative="1" as="geometry">
                        <mxPoint x="170" y="60" as="sourcePoint"/>
                        <mxPoint x="3" y="60" as="targetPoint"/>
                    </mxGeometry>
                </mxCell>
                <mxCell id="156" value="GetTopicsByNameAsync(string):&amp;nbsp;IEnumerable&amp;lt;Topic&amp;gt;" style="text;strokeColor=none;fillColor=none;align=left;verticalAlign=middle;spacingLeft=4;spacingRight=4;overflow=hidden;points=[[0,0.5],[1,0.5]];portConstraint=eastwest;rotatable=0;whiteSpace=wrap;html=1;rounded=0;" parent="152" vertex="1">
                    <mxGeometry y="60" width="310" height="30" as="geometry"/>
                </mxCell>
                <mxCell id="158" value="Use" style="endArrow=open;endSize=12;dashed=1;html=1;entryX=0;entryY=0.25;entryDx=0;entryDy=0;exitX=1;exitY=0.25;exitDx=0;exitDy=0;" parent="1" source="152" target="24" edge="1">
                    <mxGeometry width="160" relative="1" as="geometry">
                        <mxPoint x="687.5" y="410" as="sourcePoint"/>
                        <mxPoint x="712.5" y="622" as="targetPoint"/>
                    </mxGeometry>
                </mxCell>
                <mxCell id="159" value="&lt;b&gt;LoginViewModel&lt;/b&gt;" style="swimlane;fontStyle=0;childLayout=stackLayout;horizontal=1;startSize=30;horizontalStack=0;resizeParent=1;resizeParentMax=0;resizeLast=0;collapsible=1;marginBottom=0;whiteSpace=wrap;html=1;rounded=0;" parent="1" vertex="1">
                    <mxGeometry x="40" y="787" width="140" height="120" as="geometry"/>
                </mxCell>
                <mxCell id="161" value="+ Email: string" style="text;strokeColor=none;fillColor=none;align=left;verticalAlign=middle;spacingLeft=4;spacingRight=4;overflow=hidden;points=[[0,0.5],[1,0.5]];portConstraint=eastwest;rotatable=0;whiteSpace=wrap;html=1;rounded=0;" parent="159" vertex="1">
                    <mxGeometry y="30" width="140" height="30" as="geometry"/>
                </mxCell>
                <mxCell id="163" value="+ Password: string" style="text;strokeColor=none;fillColor=none;align=left;verticalAlign=middle;spacingLeft=4;spacingRight=4;overflow=hidden;points=[[0,0.5],[1,0.5]];portConstraint=eastwest;rotatable=0;whiteSpace=wrap;html=1;rounded=0;" parent="159" vertex="1">
                    <mxGeometry y="60" width="140" height="30" as="geometry"/>
                </mxCell>
                <mxCell id="164" value="+ RememberMe bool" style="text;strokeColor=none;fillColor=none;align=left;verticalAlign=middle;spacingLeft=4;spacingRight=4;overflow=hidden;points=[[0,0.5],[1,0.5]];portConstraint=eastwest;rotatable=0;whiteSpace=wrap;html=1;rounded=0;" parent="159" vertex="1">
                    <mxGeometry y="90" width="140" height="30" as="geometry"/>
                </mxCell>
                <mxCell id="165" value="&lt;b&gt;RegisterViewModel&lt;/b&gt;" style="swimlane;fontStyle=0;childLayout=stackLayout;horizontal=1;startSize=30;horizontalStack=0;resizeParent=1;resizeParentMax=0;resizeLast=0;collapsible=1;marginBottom=0;whiteSpace=wrap;html=1;rounded=0;" parent="1" vertex="1">
                    <mxGeometry x="40" y="940" width="170" height="120" as="geometry"/>
                </mxCell>
                <mxCell id="166" value="+ Email: string" style="text;strokeColor=none;fillColor=none;align=left;verticalAlign=middle;spacingLeft=4;spacingRight=4;overflow=hidden;points=[[0,0.5],[1,0.5]];portConstraint=eastwest;rotatable=0;whiteSpace=wrap;html=1;rounded=0;" parent="165" vertex="1">
                    <mxGeometry y="30" width="170" height="30" as="geometry"/>
                </mxCell>
                <mxCell id="167" value="+ Password: string" style="text;strokeColor=none;fillColor=none;align=left;verticalAlign=middle;spacingLeft=4;spacingRight=4;overflow=hidden;points=[[0,0.5],[1,0.5]];portConstraint=eastwest;rotatable=0;whiteSpace=wrap;html=1;rounded=0;" parent="165" vertex="1">
                    <mxGeometry y="60" width="170" height="30" as="geometry"/>
                </mxCell>
                <mxCell id="169" value="+ ConfirmPassword: string" style="text;strokeColor=none;fillColor=none;align=left;verticalAlign=middle;spacingLeft=4;spacingRight=4;overflow=hidden;points=[[0,0.5],[1,0.5]];portConstraint=eastwest;rotatable=0;whiteSpace=wrap;html=1;rounded=0;" parent="165" vertex="1">
                    <mxGeometry y="90" width="170" height="30" as="geometry"/>
                </mxCell>
                <mxCell id="170" value="Use" style="endArrow=open;endSize=12;dashed=1;html=1;entryX=1.012;entryY=0.108;entryDx=0;entryDy=0;entryPerimeter=0;exitX=0;exitY=0.5;exitDx=0;exitDy=0;" parent="1" source="146" target="159" edge="1">
                    <mxGeometry width="160" relative="1" as="geometry">
                        <mxPoint x="250" y="870" as="sourcePoint"/>
                        <mxPoint x="250" y="782" as="targetPoint"/>
                    </mxGeometry>
                </mxCell>
                <mxCell id="171" value="Use" style="endArrow=open;endSize=12;dashed=1;html=1;entryX=0.996;entryY=0.105;entryDx=0;entryDy=0;entryPerimeter=0;exitX=0;exitY=0.5;exitDx=0;exitDy=0;" parent="1" source="148" target="165" edge="1">
                    <mxGeometry width="160" relative="1" as="geometry">
                        <mxPoint x="316" y="945" as="sourcePoint"/>
                        <mxPoint x="212" y="813" as="targetPoint"/>
                    </mxGeometry>
                </mxCell>
                <mxCell id="172" value="&lt;i&gt;IUserService&lt;/i&gt;" style="swimlane;fontStyle=0;childLayout=stackLayout;horizontal=1;startSize=30;horizontalStack=0;resizeParent=1;resizeParentMax=0;resizeLast=0;collapsible=1;marginBottom=0;whiteSpace=wrap;html=1;rounded=0;" parent="1" vertex="1">
                    <mxGeometry x="40" y="380" width="260" height="240" as="geometry"/>
                </mxCell>
                <mxCell id="175" value="RegisterUserAsync(string, string): string" style="text;strokeColor=none;fillColor=none;align=left;verticalAlign=middle;spacingLeft=4;spacingRight=4;overflow=hidden;points=[[0,0.5],[1,0.5]];portConstraint=eastwest;rotatable=0;whiteSpace=wrap;html=1;rounded=0;" parent="172" vertex="1">
                    <mxGeometry y="30" width="260" height="30" as="geometry"/>
                </mxCell>
                <mxCell id="177" value="LoginUserAsync(string, string): string" style="text;strokeColor=none;fillColor=none;align=left;verticalAlign=middle;spacingLeft=4;spacingRight=4;overflow=hidden;points=[[0,0.5],[1,0.5]];portConstraint=eastwest;rotatable=0;whiteSpace=wrap;html=1;rounded=0;" parent="172" vertex="1">
                    <mxGeometry y="60" width="260" height="30" as="geometry"/>
                </mxCell>
                <mxCell id="299" value="DeleteUserAsync(string): string" style="text;strokeColor=none;fillColor=none;align=left;verticalAlign=middle;spacingLeft=4;spacingRight=4;overflow=hidden;points=[[0,0.5],[1,0.5]];portConstraint=eastwest;rotatable=0;whiteSpace=wrap;html=1;rounded=0;" parent="172" vertex="1">
                    <mxGeometry y="90" width="260" height="30" as="geometry"/>
                </mxCell>
                <mxCell id="298" value="BanUserAsync(string, bool): string" style="text;strokeColor=none;fillColor=none;align=left;verticalAlign=middle;spacingLeft=4;spacingRight=4;overflow=hidden;points=[[0,0.5],[1,0.5]];portConstraint=eastwest;rotatable=0;whiteSpace=wrap;html=1;rounded=0;" parent="172" vertex="1">
                    <mxGeometry y="120" width="260" height="30" as="geometry"/>
                </mxCell>
                <mxCell id="322" value="UpdateUserRoleAsync(string): string" style="text;strokeColor=none;fillColor=none;align=left;verticalAlign=middle;spacingLeft=4;spacingRight=4;overflow=hidden;points=[[0,0.5],[1,0.5]];portConstraint=eastwest;rotatable=0;whiteSpace=wrap;html=1;rounded=0;" parent="172" vertex="1">
                    <mxGeometry y="150" width="260" height="30" as="geometry"/>
                </mxCell>
                <mxCell id="320" value="ChangeUserInfoAsync(string, string): string" style="text;strokeColor=none;fillColor=none;align=left;verticalAlign=middle;spacingLeft=4;spacingRight=4;overflow=hidden;points=[[0,0.5],[1,0.5]];portConstraint=eastwest;rotatable=0;whiteSpace=wrap;html=1;rounded=0;" parent="172" vertex="1">
                    <mxGeometry y="180" width="260" height="30" as="geometry"/>
                </mxCell>
                <mxCell id="178" value="LogoutAsync()" style="text;strokeColor=none;fillColor=none;align=left;verticalAlign=middle;spacingLeft=4;spacingRight=4;overflow=hidden;points=[[0,0.5],[1,0.5]];portConstraint=eastwest;rotatable=0;whiteSpace=wrap;html=1;rounded=0;" parent="172" vertex="1">
                    <mxGeometry y="210" width="260" height="30" as="geometry"/>
                </mxCell>
                <mxCell id="179" value="" style="endArrow=block;dashed=1;endFill=0;endSize=12;html=1;exitX=1;exitY=0.149;exitDx=0;exitDy=0;exitPerimeter=0;entryX=0.25;entryY=0;entryDx=0;entryDy=0;" parent="1" source="172" target="126" edge="1">
                    <mxGeometry width="160" relative="1" as="geometry">
                        <mxPoint x="240" y="220" as="sourcePoint"/>
                        <mxPoint x="400" y="220" as="targetPoint"/>
                    </mxGeometry>
                </mxCell>
                <mxCell id="180" value="" style="endArrow=block;dashed=1;endFill=0;endSize=12;html=1;entryX=1;entryY=0;entryDx=0;entryDy=0;" parent="1" target="117" edge="1">
                    <mxGeometry width="160" relative="1" as="geometry">
                        <mxPoint x="816" y="310" as="sourcePoint"/>
                        <mxPoint x="631" y="292" as="targetPoint"/>
                    </mxGeometry>
                </mxCell>
                <mxCell id="181" value="" style="endArrow=block;dashed=1;endFill=0;endSize=12;html=1;entryX=0.25;entryY=0;entryDx=0;entryDy=0;exitX=0.542;exitY=1.027;exitDx=0;exitDy=0;exitPerimeter=0;" parent="1" source="116" target="152" edge="1">
                    <mxGeometry width="160" relative="1" as="geometry">
                        <mxPoint x="826" y="320" as="sourcePoint"/>
                        <mxPoint x="689" y="390" as="targetPoint"/>
                    </mxGeometry>
                </mxCell>
                <mxCell id="182" value="&lt;div&gt;&lt;span style=&quot;background-color: transparent;&quot;&gt;&lt;i&gt;IRepository&lt;/i&gt;&lt;/span&gt;&lt;/div&gt;" style="swimlane;fontStyle=0;childLayout=stackLayout;horizontal=1;startSize=30;horizontalStack=0;resizeParent=1;resizeParentMax=0;resizeLast=0;collapsible=1;marginBottom=0;whiteSpace=wrap;html=1;rounded=0;" parent="1" vertex="1">
                    <mxGeometry x="470" y="100" width="190" height="180" as="geometry"/>
                </mxCell>
                <mxCell id="184" value="GetAllAsync(): IEnumereble&amp;lt;T&amp;gt;" style="text;strokeColor=none;fillColor=none;align=left;verticalAlign=middle;spacingLeft=4;spacingRight=4;overflow=hidden;points=[[0,0.5],[1,0.5]];portConstraint=eastwest;rotatable=0;whiteSpace=wrap;html=1;rounded=0;" parent="182" vertex="1">
                    <mxGeometry y="30" width="190" height="30" as="geometry"/>
                </mxCell>
                <mxCell id="185" value="" style="endArrow=none;html=1;entryX=-0.002;entryY=-0.006;entryDx=0;entryDy=0;entryPerimeter=0;exitX=0.999;exitY=0.003;exitDx=0;exitDy=0;exitPerimeter=0;" parent="182" source="184" target="184" edge="1">
                    <mxGeometry width="50" height="50" relative="1" as="geometry">
                        <mxPoint x="170" y="60" as="sourcePoint"/>
                        <mxPoint x="3" y="60" as="targetPoint"/>
                    </mxGeometry>
                </mxCell>
                <mxCell id="186" value="GetByIdAsync(): T?" style="text;strokeColor=none;fillColor=none;align=left;verticalAlign=middle;spacingLeft=4;spacingRight=4;overflow=hidden;points=[[0,0.5],[1,0.5]];portConstraint=eastwest;rotatable=0;whiteSpace=wrap;html=1;rounded=0;" parent="182" vertex="1">
                    <mxGeometry y="60" width="190" height="30" as="geometry"/>
                </mxCell>
                <mxCell id="187" value="AddAsync()" style="text;strokeColor=none;fillColor=none;align=left;verticalAlign=middle;spacingLeft=4;spacingRight=4;overflow=hidden;points=[[0,0.5],[1,0.5]];portConstraint=eastwest;rotatable=0;whiteSpace=wrap;html=1;rounded=0;" parent="182" vertex="1">
                    <mxGeometry y="90" width="190" height="30" as="geometry"/>
                </mxCell>
                <mxCell id="188" value="UpdateAsync()" style="text;strokeColor=none;fillColor=none;align=left;verticalAlign=middle;spacingLeft=4;spacingRight=4;overflow=hidden;points=[[0,0.5],[1,0.5]];portConstraint=eastwest;rotatable=0;whiteSpace=wrap;html=1;rounded=0;" parent="182" vertex="1">
                    <mxGeometry y="120" width="190" height="30" as="geometry"/>
                </mxCell>
                <mxCell id="189" value="DeleteAsync()" style="text;strokeColor=none;fillColor=none;align=left;verticalAlign=middle;spacingLeft=4;spacingRight=4;overflow=hidden;points=[[0,0.5],[1,0.5]];portConstraint=eastwest;rotatable=0;whiteSpace=wrap;html=1;rounded=0;" parent="182" vertex="1">
                    <mxGeometry y="150" width="190" height="30" as="geometry"/>
                </mxCell>
                <mxCell id="190" value="" style="endArrow=block;dashed=1;endFill=0;endSize=12;html=1;exitX=1.007;exitY=0.076;exitDx=0;exitDy=0;exitPerimeter=0;entryX=0.003;entryY=0.068;entryDx=0;entryDy=0;entryPerimeter=0;" parent="1" source="182" target="106" edge="1">
                    <mxGeometry width="160" relative="1" as="geometry">
                        <mxPoint x="316" y="408" as="sourcePoint"/>
                        <mxPoint x="381" y="600" as="targetPoint"/>
                    </mxGeometry>
                </mxCell>
                <mxCell id="191" value="&lt;i&gt;IUserRepository&lt;/i&gt;" style="swimlane;fontStyle=0;childLayout=stackLayout;horizontal=1;startSize=30;horizontalStack=0;resizeParent=1;resizeParentMax=0;resizeLast=0;collapsible=1;marginBottom=0;whiteSpace=wrap;html=1;rounded=0;" parent="1" vertex="1">
                    <mxGeometry x="140" y="180" width="285" height="150" as="geometry"/>
                </mxCell>
                <mxCell id="193" value="GetByEmailAsync(string): User" style="text;strokeColor=none;fillColor=none;align=left;verticalAlign=middle;spacingLeft=4;spacingRight=4;overflow=hidden;points=[[0,0.5],[1,0.5]];portConstraint=eastwest;rotatable=0;whiteSpace=wrap;html=1;rounded=0;" parent="191" vertex="1">
                    <mxGeometry y="30" width="285" height="30" as="geometry"/>
                </mxCell>
                <mxCell id="194" value="" style="endArrow=none;html=1;entryX=-0.002;entryY=-0.006;entryDx=0;entryDy=0;entryPerimeter=0;exitX=0.999;exitY=0.003;exitDx=0;exitDy=0;exitPerimeter=0;" parent="191" source="193" target="193" edge="1">
                    <mxGeometry width="50" height="50" relative="1" as="geometry">
                        <mxPoint x="170" y="60" as="sourcePoint"/>
                        <mxPoint x="3" y="60" as="targetPoint"/>
                    </mxGeometry>
                </mxCell>
                <mxCell id="195" value="GetUsersByRoleAsync(string):&amp;nbsp;IEnumerable&amp;lt;User&amp;gt;" style="text;strokeColor=none;fillColor=none;align=left;verticalAlign=middle;spacingLeft=4;spacingRight=4;overflow=hidden;points=[[0,0.5],[1,0.5]];portConstraint=eastwest;rotatable=0;whiteSpace=wrap;html=1;rounded=0;" parent="191" vertex="1">
                    <mxGeometry y="60" width="285" height="30" as="geometry"/>
                </mxCell>
                <mxCell id="280" value="BanByEmailAsync(string): string" style="text;strokeColor=none;fillColor=none;align=left;verticalAlign=middle;spacingLeft=4;spacingRight=4;overflow=hidden;points=[[0,0.5],[1,0.5]];portConstraint=eastwest;rotatable=0;whiteSpace=wrap;html=1;rounded=0;" parent="191" vertex="1">
                    <mxGeometry y="90" width="285" height="30" as="geometry"/>
                </mxCell>
                <mxCell id="317" value="ChangeInfoAsync(string?, string?): string" style="text;strokeColor=none;fillColor=none;align=left;verticalAlign=middle;spacingLeft=4;spacingRight=4;overflow=hidden;points=[[0,0.5],[1,0.5]];portConstraint=eastwest;rotatable=0;whiteSpace=wrap;html=1;rounded=0;" parent="191" vertex="1">
                    <mxGeometry y="120" width="285" height="30" as="geometry"/>
                </mxCell>
                <mxCell id="196" value="" style="endArrow=block;dashed=1;endFill=0;endSize=12;html=1;exitX=0.912;exitY=1.033;exitDx=0;exitDy=0;exitPerimeter=0;entryX=0.25;entryY=0;entryDx=0;entryDy=0;" parent="1" source="317" target="117" edge="1">
                    <mxGeometry width="160" relative="1" as="geometry">
                        <mxPoint x="393.5" y="330" as="sourcePoint"/>
                        <mxPoint x="511.5" y="330" as="targetPoint"/>
                    </mxGeometry>
                </mxCell>
                <mxCell id="203" value="&lt;b&gt;AppDbContext&lt;/b&gt;" style="swimlane;fontStyle=0;childLayout=stackLayout;horizontal=1;startSize=30;horizontalStack=0;resizeParent=1;resizeParentMax=0;resizeLast=0;collapsible=1;marginBottom=0;whiteSpace=wrap;html=1;rounded=0;" parent="1" vertex="1">
                    <mxGeometry x="1090" y="40" width="150" height="60" as="geometry"/>
                </mxCell>
                <mxCell id="206" value="" style="endArrow=none;html=1;entryX=-0.002;entryY=-0.006;entryDx=0;entryDy=0;entryPerimeter=0;exitX=1.006;exitY=0.978;exitDx=0;exitDy=0;exitPerimeter=0;" parent="203" edge="1">
                    <mxGeometry width="50" height="50" relative="1" as="geometry">
                        <mxPoint x="150.89999999999964" y="59.33999999999992" as="sourcePoint"/>
                        <mxPoint x="-0.5700000000001637" y="59.819999999999936" as="targetPoint"/>
                    </mxGeometry>
                </mxCell>
                <mxCell id="207" value="OnModelCreating()" style="text;strokeColor=none;fillColor=none;align=left;verticalAlign=middle;spacingLeft=4;spacingRight=4;overflow=hidden;points=[[0,0.5],[1,0.5]];portConstraint=eastwest;rotatable=0;whiteSpace=wrap;html=1;rounded=0;" parent="203" vertex="1">
                    <mxGeometry y="30" width="150" height="30" as="geometry"/>
                </mxCell>
                <mxCell id="208" value="Use" style="endArrow=open;endSize=12;dashed=1;html=1;entryX=0;entryY=0.5;entryDx=0;entryDy=0;exitX=1;exitY=0.5;exitDx=0;exitDy=0;" parent="1" source="107" edge="1">
                    <mxGeometry width="160" relative="1" as="geometry">
                        <mxPoint x="1100" y="60" as="sourcePoint"/>
                        <mxPoint x="1090" y="85" as="targetPoint"/>
                    </mxGeometry>
                </mxCell>
                <mxCell id="213" value="&lt;i&gt;ITopicRepository&lt;/i&gt;" style="swimlane;fontStyle=0;childLayout=stackLayout;horizontal=1;startSize=30;horizontalStack=0;resizeParent=1;resizeParentMax=0;resizeLast=0;collapsible=1;marginBottom=0;whiteSpace=wrap;html=1;rounded=0;" parent="1" vertex="1">
                    <mxGeometry x="1414" y="280" width="310" height="90" as="geometry"/>
                </mxCell>
                <mxCell id="214" value="GetByNameAsync(string): Topic" style="text;strokeColor=none;fillColor=none;align=left;verticalAlign=middle;spacingLeft=4;spacingRight=4;overflow=hidden;points=[[0,0.5],[1,0.5]];portConstraint=eastwest;rotatable=0;whiteSpace=wrap;html=1;rounded=0;" parent="213" vertex="1">
                    <mxGeometry y="30" width="310" height="30" as="geometry"/>
                </mxCell>
                <mxCell id="215" value="" style="endArrow=none;html=1;entryX=-0.002;entryY=-0.006;entryDx=0;entryDy=0;entryPerimeter=0;exitX=0.999;exitY=0.003;exitDx=0;exitDy=0;exitPerimeter=0;" parent="213" source="214" target="214" edge="1">
                    <mxGeometry width="50" height="50" relative="1" as="geometry">
                        <mxPoint x="170" y="60" as="sourcePoint"/>
                        <mxPoint x="3" y="60" as="targetPoint"/>
                    </mxGeometry>
                </mxCell>
                <mxCell id="216" value="GetTopicsByNameAsync(string):&amp;nbsp;IEnumerable&amp;lt;Topic&amp;gt;" style="text;strokeColor=none;fillColor=none;align=left;verticalAlign=middle;spacingLeft=4;spacingRight=4;overflow=hidden;points=[[0,0.5],[1,0.5]];portConstraint=eastwest;rotatable=0;whiteSpace=wrap;html=1;rounded=0;" parent="213" vertex="1">
                    <mxGeometry y="60" width="310" height="30" as="geometry"/>
                </mxCell>
                <mxCell id="217" value="" style="endArrow=block;dashed=1;endFill=0;endSize=12;html=1;entryX=1;entryY=0;entryDx=0;entryDy=0;exitX=-0.006;exitY=0.167;exitDx=0;exitDy=0;exitPerimeter=0;" parent="1" source="213" target="152" edge="1">
                    <mxGeometry width="160" relative="1" as="geometry">
                        <mxPoint x="891" y="321" as="sourcePoint"/>
                        <mxPoint x="951" y="395" as="targetPoint"/>
                    </mxGeometry>
                </mxCell>
                <mxCell id="218" value="&lt;b&gt;TopicService&lt;/b&gt;" style="swimlane;fontStyle=0;childLayout=stackLayout;horizontal=1;startSize=30;horizontalStack=0;resizeParent=1;resizeParentMax=0;resizeLast=0;collapsible=1;marginBottom=0;whiteSpace=wrap;html=1;rounded=0;" parent="1" vertex="1">
                    <mxGeometry x="1360" y="650" width="260" height="240" as="geometry"/>
                </mxCell>
                <mxCell id="221" value="SubscribeUserAsync(string, string): string" style="text;strokeColor=none;fillColor=none;align=left;verticalAlign=middle;spacingLeft=4;spacingRight=4;overflow=hidden;points=[[0,0.5],[1,0.5]];portConstraint=eastwest;rotatable=0;whiteSpace=wrap;html=1;rounded=0;" parent="218" vertex="1">
                    <mxGeometry y="30" width="260" height="30" as="geometry"/>
                </mxCell>
                <mxCell id="222" value="" style="endArrow=none;html=1;entryX=-0.002;entryY=-0.006;entryDx=0;entryDy=0;entryPerimeter=0;exitX=0.999;exitY=0.003;exitDx=0;exitDy=0;exitPerimeter=0;" parent="218" source="221" target="221" edge="1">
                    <mxGeometry width="50" height="50" relative="1" as="geometry">
                        <mxPoint x="170" y="60" as="sourcePoint"/>
                        <mxPoint x="3" y="60" as="targetPoint"/>
                    </mxGeometry>
                </mxCell>
                <mxCell id="231" value="UnSubscribeUserAsync(string, string): string" style="text;strokeColor=none;fillColor=none;align=left;verticalAlign=middle;spacingLeft=4;spacingRight=4;overflow=hidden;points=[[0,0.5],[1,0.5]];portConstraint=eastwest;rotatable=0;whiteSpace=wrap;html=1;rounded=0;" parent="218" vertex="1">
                    <mxGeometry y="60" width="260" height="30" as="geometry"/>
                </mxCell>
                <mxCell id="224" value="FindTopicsAsync(string): List&amp;lt;Topic&amp;gt;" style="text;strokeColor=none;fillColor=none;align=left;verticalAlign=middle;spacingLeft=4;spacingRight=4;overflow=hidden;points=[[0,0.5],[1,0.5]];portConstraint=eastwest;rotatable=0;whiteSpace=wrap;html=1;rounded=0;" parent="218" vertex="1">
                    <mxGeometry y="90" width="260" height="30" as="geometry"/>
                </mxCell>
                <mxCell id="493" value="&lt;span style=&quot;color: rgb(0, 0, 0);&quot;&gt;AddTopicAsync(string, string): string&lt;/span&gt;" style="text;strokeColor=none;fillColor=none;align=left;verticalAlign=middle;spacingLeft=4;spacingRight=4;overflow=hidden;points=[[0,0.5],[1,0.5]];portConstraint=eastwest;rotatable=0;whiteSpace=wrap;html=1;rounded=0;" vertex="1" parent="218">
                    <mxGeometry y="120" width="260" height="30" as="geometry"/>
                </mxCell>
                <mxCell id="255" value="AskForTopicAsync(string): string" style="text;strokeColor=none;fillColor=none;align=left;verticalAlign=middle;spacingLeft=4;spacingRight=4;overflow=hidden;points=[[0,0.5],[1,0.5]];portConstraint=eastwest;rotatable=0;whiteSpace=wrap;html=1;rounded=0;" parent="218" vertex="1">
                    <mxGeometry y="150" width="260" height="30" as="geometry"/>
                </mxCell>
                <mxCell id="276" value="DeleteTopicAsync(string): string" style="text;strokeColor=none;fillColor=none;align=left;verticalAlign=middle;spacingLeft=4;spacingRight=4;overflow=hidden;points=[[0,0.5],[1,0.5]];portConstraint=eastwest;rotatable=0;whiteSpace=wrap;html=1;rounded=0;" parent="218" vertex="1">
                    <mxGeometry y="180" width="260" height="30" as="geometry"/>
                </mxCell>
                <mxCell id="420" value="&lt;span style=&quot;color: rgb(0, 0, 0);&quot;&gt;FilterTopicsByCategoryAsync(string): string&lt;/span&gt;" style="text;strokeColor=none;fillColor=none;align=left;verticalAlign=middle;spacingLeft=4;spacingRight=4;overflow=hidden;points=[[0,0.5],[1,0.5]];portConstraint=eastwest;rotatable=0;whiteSpace=wrap;html=1;rounded=0;" vertex="1" parent="218">
                    <mxGeometry y="210" width="260" height="30" as="geometry"/>
                </mxCell>
                <mxCell id="225" value="&lt;b&gt;UserTopic&lt;/b&gt;" style="swimlane;fontStyle=0;childLayout=stackLayout;horizontal=1;startSize=30;horizontalStack=0;resizeParent=1;resizeParentMax=0;resizeLast=0;collapsible=1;marginBottom=0;whiteSpace=wrap;html=1;rounded=0;" parent="1" vertex="1">
                    <mxGeometry x="890" y="677" width="140" height="90" as="geometry"/>
                </mxCell>
                <mxCell id="226" value="+ UserId: Guid" style="text;strokeColor=none;fillColor=none;align=left;verticalAlign=middle;spacingLeft=4;spacingRight=4;overflow=hidden;points=[[0,0.5],[1,0.5]];portConstraint=eastwest;rotatable=0;whiteSpace=wrap;html=1;rounded=0;" parent="225" vertex="1">
                    <mxGeometry y="30" width="140" height="30" as="geometry"/>
                </mxCell>
                <mxCell id="228" value="+ TopicId: Guid" style="text;strokeColor=none;fillColor=none;align=left;verticalAlign=middle;spacingLeft=4;spacingRight=4;overflow=hidden;points=[[0,0.5],[1,0.5]];portConstraint=eastwest;rotatable=0;whiteSpace=wrap;html=1;rounded=0;" parent="225" vertex="1">
                    <mxGeometry y="60" width="140" height="30" as="geometry"/>
                </mxCell>
                <mxCell id="232" value="Use" style="endArrow=open;endSize=12;dashed=1;html=1;entryX=0.75;entryY=0;entryDx=0;entryDy=0;exitX=0.631;exitY=1.106;exitDx=0;exitDy=0;exitPerimeter=0;" parent="1" source="241" target="225" edge="1">
                    <mxGeometry width="160" relative="1" as="geometry">
                        <mxPoint x="1140" y="550" as="sourcePoint"/>
                        <mxPoint x="1276" y="625" as="targetPoint"/>
                    </mxGeometry>
                </mxCell>
                <mxCell id="233" value="Use" style="endArrow=open;endSize=12;dashed=1;html=1;entryX=0.939;entryY=0.986;entryDx=0;entryDy=0;exitX=0.25;exitY=0;exitDx=0;exitDy=0;entryPerimeter=0;" parent="1" source="218" target="156" edge="1">
                    <mxGeometry width="160" relative="1" as="geometry">
                        <mxPoint x="1208" y="656" as="sourcePoint"/>
                        <mxPoint x="1119" y="655" as="targetPoint"/>
                    </mxGeometry>
                </mxCell>
                <mxCell id="235" value="&lt;b&gt;UserTopicRepository&lt;/b&gt;" style="swimlane;fontStyle=0;childLayout=stackLayout;horizontal=1;startSize=30;horizontalStack=0;resizeParent=1;resizeParentMax=0;resizeLast=0;collapsible=1;marginBottom=0;whiteSpace=wrap;html=1;rounded=0;" parent="1" vertex="1">
                    <mxGeometry x="870" y="490" width="310" height="120" as="geometry"/>
                </mxCell>
                <mxCell id="237" value="" style="endArrow=none;html=1;entryX=-0.002;entryY=-0.006;entryDx=0;entryDy=0;entryPerimeter=0;exitX=0.999;exitY=0.003;exitDx=0;exitDy=0;exitPerimeter=0;" parent="235" edge="1">
                    <mxGeometry width="50" height="50" relative="1" as="geometry">
                        <mxPoint x="309.69000000000005" y="30.089999999999918" as="sourcePoint"/>
                        <mxPoint x="-0.6199999999998909" y="29.81999999999971" as="targetPoint"/>
                    </mxGeometry>
                </mxCell>
                <mxCell id="243" value="&lt;span style=&quot;color: rgb(0, 0, 0);&quot;&gt;- _userManager: UserManager(User)&lt;/span&gt;" style="text;strokeColor=none;fillColor=none;align=left;verticalAlign=middle;spacingLeft=4;spacingRight=4;overflow=hidden;points=[[0,0.5],[1,0.5]];portConstraint=eastwest;rotatable=0;whiteSpace=wrap;html=1;rounded=0;" parent="235" vertex="1">
                    <mxGeometry y="30" width="310" height="30" as="geometry"/>
                </mxCell>
                <mxCell id="244" value="" style="endArrow=none;html=1;entryX=-0.002;entryY=-0.006;entryDx=0;entryDy=0;entryPerimeter=0;exitX=1;exitY=-0.02;exitDx=0;exitDy=0;exitPerimeter=0;" parent="235" source="240" edge="1">
                    <mxGeometry width="50" height="50" relative="1" as="geometry">
                        <mxPoint x="310" y="59" as="sourcePoint"/>
                        <mxPoint y="59.09000000000003" as="targetPoint"/>
                    </mxGeometry>
                </mxCell>
                <mxCell id="240" value="SubscribeUserAsync(string, string): string" style="text;strokeColor=none;fillColor=none;align=left;verticalAlign=middle;spacingLeft=4;spacingRight=4;overflow=hidden;points=[[0,0.5],[1,0.5]];portConstraint=eastwest;rotatable=0;whiteSpace=wrap;html=1;rounded=0;" parent="235" vertex="1">
                    <mxGeometry y="60" width="310" height="30" as="geometry"/>
                </mxCell>
                <mxCell id="241" value="UnSubscribeUserAsync(string, string): string" style="text;strokeColor=none;fillColor=none;align=left;verticalAlign=middle;spacingLeft=4;spacingRight=4;overflow=hidden;points=[[0,0.5],[1,0.5]];portConstraint=eastwest;rotatable=0;whiteSpace=wrap;html=1;rounded=0;" parent="235" vertex="1">
                    <mxGeometry y="90" width="310" height="30" as="geometry"/>
                </mxCell>
                <mxCell id="239" value="" style="endArrow=block;dashed=1;endFill=0;endSize=12;html=1;entryX=0.25;entryY=0;entryDx=0;entryDy=0;exitX=0.533;exitY=0.924;exitDx=0;exitDy=0;exitPerimeter=0;" parent="1" source="116" target="235" edge="1">
                    <mxGeometry width="160" relative="1" as="geometry">
                        <mxPoint x="891" y="321" as="sourcePoint"/>
                        <mxPoint x="1148" y="390" as="targetPoint"/>
                    </mxGeometry>
                </mxCell>
                <mxCell id="246" value="&lt;i&gt;IUserTopicRepository&lt;/i&gt;" style="swimlane;fontStyle=0;childLayout=stackLayout;horizontal=1;startSize=30;horizontalStack=0;resizeParent=1;resizeParentMax=0;resizeLast=0;collapsible=1;marginBottom=0;whiteSpace=wrap;html=1;rounded=0;" parent="1" vertex="1">
                    <mxGeometry x="1050" y="220" width="310" height="90" as="geometry"/>
                </mxCell>
                <mxCell id="247" value="" style="endArrow=none;html=1;entryX=-0.002;entryY=-0.006;entryDx=0;entryDy=0;entryPerimeter=0;exitX=0.999;exitY=0.003;exitDx=0;exitDy=0;exitPerimeter=0;" parent="246" edge="1">
                    <mxGeometry width="50" height="50" relative="1" as="geometry">
                        <mxPoint x="309.69000000000005" y="30.089999999999918" as="sourcePoint"/>
                        <mxPoint x="-0.6199999999998909" y="29.81999999999971" as="targetPoint"/>
                    </mxGeometry>
                </mxCell>
                <mxCell id="250" value="SubscribeUserAsync(string, string): string" style="text;strokeColor=none;fillColor=none;align=left;verticalAlign=middle;spacingLeft=4;spacingRight=4;overflow=hidden;points=[[0,0.5],[1,0.5]];portConstraint=eastwest;rotatable=0;whiteSpace=wrap;html=1;rounded=0;" parent="246" vertex="1">
                    <mxGeometry y="30" width="310" height="30" as="geometry"/>
                </mxCell>
                <mxCell id="251" value="UnSubscribeUserAsync(string, string): string" style="text;strokeColor=none;fillColor=none;align=left;verticalAlign=middle;spacingLeft=4;spacingRight=4;overflow=hidden;points=[[0,0.5],[1,0.5]];portConstraint=eastwest;rotatable=0;whiteSpace=wrap;html=1;rounded=0;" parent="246" vertex="1">
                    <mxGeometry y="60" width="310" height="30" as="geometry"/>
                </mxCell>
                <mxCell id="253" value="" style="endArrow=block;dashed=1;endFill=0;endSize=12;html=1;entryX=0.414;entryY=0.008;entryDx=0;entryDy=0;exitX=0.071;exitY=1.061;exitDx=0;exitDy=0;exitPerimeter=0;entryPerimeter=0;" parent="1" source="251" target="235" edge="1">
                    <mxGeometry width="160" relative="1" as="geometry">
                        <mxPoint x="891" y="321" as="sourcePoint"/>
                        <mxPoint x="1148" y="390" as="targetPoint"/>
                    </mxGeometry>
                </mxCell>
                <mxCell id="254" value="Use" style="endArrow=open;endSize=12;dashed=1;html=1;entryX=0.999;entryY=0.117;entryDx=0;entryDy=0;exitX=-0.009;exitY=0.086;exitDx=0;exitDy=0;entryPerimeter=0;exitPerimeter=0;" parent="1" source="218" target="235" edge="1">
                    <mxGeometry width="160" relative="1" as="geometry">
                        <mxPoint x="1445" y="697" as="sourcePoint"/>
                        <mxPoint x="1361" y="480" as="targetPoint"/>
                    </mxGeometry>
                </mxCell>
                <mxCell id="256" value="&lt;i&gt;ITopicService&lt;/i&gt;" style="swimlane;fontStyle=0;childLayout=stackLayout;horizontal=1;startSize=30;horizontalStack=0;resizeParent=1;resizeParentMax=0;resizeLast=0;collapsible=1;marginBottom=0;whiteSpace=wrap;html=1;rounded=0;" parent="1" vertex="1">
                    <mxGeometry x="1680" y="505" width="260" height="240" as="geometry"/>
                </mxCell>
                <mxCell id="257" value="SubscribeUserAsync(string, string): string" style="text;strokeColor=none;fillColor=none;align=left;verticalAlign=middle;spacingLeft=4;spacingRight=4;overflow=hidden;points=[[0,0.5],[1,0.5]];portConstraint=eastwest;rotatable=0;whiteSpace=wrap;html=1;rounded=0;" parent="256" vertex="1">
                    <mxGeometry y="30" width="260" height="30" as="geometry"/>
                </mxCell>
                <mxCell id="258" value="" style="endArrow=none;html=1;entryX=-0.002;entryY=-0.006;entryDx=0;entryDy=0;entryPerimeter=0;exitX=0.999;exitY=0.003;exitDx=0;exitDy=0;exitPerimeter=0;" parent="256" source="257" target="257" edge="1">
                    <mxGeometry width="50" height="50" relative="1" as="geometry">
                        <mxPoint x="170" y="60" as="sourcePoint"/>
                        <mxPoint x="3" y="60" as="targetPoint"/>
                    </mxGeometry>
                </mxCell>
                <mxCell id="259" value="UnSubscribeUserAsync(string, string): string" style="text;strokeColor=none;fillColor=none;align=left;verticalAlign=middle;spacingLeft=4;spacingRight=4;overflow=hidden;points=[[0,0.5],[1,0.5]];portConstraint=eastwest;rotatable=0;whiteSpace=wrap;html=1;rounded=0;" parent="256" vertex="1">
                    <mxGeometry y="60" width="260" height="30" as="geometry"/>
                </mxCell>
                <mxCell id="260" value="FindTopicsAsync(string): List&amp;lt;Topic&amp;gt;" style="text;strokeColor=none;fillColor=none;align=left;verticalAlign=middle;spacingLeft=4;spacingRight=4;overflow=hidden;points=[[0,0.5],[1,0.5]];portConstraint=eastwest;rotatable=0;whiteSpace=wrap;html=1;rounded=0;" parent="256" vertex="1">
                    <mxGeometry y="90" width="260" height="30" as="geometry"/>
                </mxCell>
                <mxCell id="492" value="AddTopicAsync(string, string): string" style="text;strokeColor=none;fillColor=none;align=left;verticalAlign=middle;spacingLeft=4;spacingRight=4;overflow=hidden;points=[[0,0.5],[1,0.5]];portConstraint=eastwest;rotatable=0;whiteSpace=wrap;html=1;rounded=0;" vertex="1" parent="256">
                    <mxGeometry y="120" width="260" height="30" as="geometry"/>
                </mxCell>
                <mxCell id="261" value="AskForTopicAsync(string): string" style="text;strokeColor=none;fillColor=none;align=left;verticalAlign=middle;spacingLeft=4;spacingRight=4;overflow=hidden;points=[[0,0.5],[1,0.5]];portConstraint=eastwest;rotatable=0;whiteSpace=wrap;html=1;rounded=0;" parent="256" vertex="1">
                    <mxGeometry y="150" width="260" height="30" as="geometry"/>
                </mxCell>
                <mxCell id="417" value="&lt;span style=&quot;color: rgb(0, 0, 0);&quot;&gt;DeleteTopicAsync(string): string&lt;/span&gt;" style="text;strokeColor=none;fillColor=none;align=left;verticalAlign=middle;spacingLeft=4;spacingRight=4;overflow=hidden;points=[[0,0.5],[1,0.5]];portConstraint=eastwest;rotatable=0;whiteSpace=wrap;html=1;rounded=0;" vertex="1" parent="256">
                    <mxGeometry y="180" width="260" height="30" as="geometry"/>
                </mxCell>
                <mxCell id="419" value="FilterTopicsByCategoryAsync(string): string" style="text;strokeColor=none;fillColor=none;align=left;verticalAlign=middle;spacingLeft=4;spacingRight=4;overflow=hidden;points=[[0,0.5],[1,0.5]];portConstraint=eastwest;rotatable=0;whiteSpace=wrap;html=1;rounded=0;" vertex="1" parent="256">
                    <mxGeometry y="210" width="260" height="30" as="geometry"/>
                </mxCell>
                <mxCell id="262" value="" style="endArrow=block;dashed=1;endFill=0;endSize=12;html=1;entryX=0.922;entryY=0.002;entryDx=0;entryDy=0;exitX=0.001;exitY=0.133;exitDx=0;exitDy=0;exitPerimeter=0;entryPerimeter=0;" parent="1" source="256" target="218" edge="1">
                    <mxGeometry width="160" relative="1" as="geometry">
                        <mxPoint x="1652" y="552.5" as="sourcePoint"/>
                        <mxPoint x="1610" y="637.5" as="targetPoint"/>
                    </mxGeometry>
                </mxCell>
                <mxCell id="263" value="&lt;b&gt;AskedTopics&lt;/b&gt;" style="swimlane;fontStyle=0;childLayout=stackLayout;horizontal=1;startSize=30;horizontalStack=0;resizeParent=1;resizeParentMax=0;resizeLast=0;collapsible=1;marginBottom=0;whiteSpace=wrap;html=1;rounded=0;" parent="1" vertex="1">
                    <mxGeometry x="1110" y="677" width="140" height="60" as="geometry"/>
                </mxCell>
                <mxCell id="264" value="+ TopicId: Guid" style="text;strokeColor=none;fillColor=none;align=left;verticalAlign=middle;spacingLeft=4;spacingRight=4;overflow=hidden;points=[[0,0.5],[1,0.5]];portConstraint=eastwest;rotatable=0;whiteSpace=wrap;html=1;rounded=0;" parent="263" vertex="1">
                    <mxGeometry y="30" width="140" height="30" as="geometry"/>
                </mxCell>
                <mxCell id="266" value="Use" style="endArrow=open;endSize=12;dashed=1;html=1;entryX=1;entryY=0.25;entryDx=0;entryDy=0;exitX=0;exitY=0.5;exitDx=0;exitDy=0;" parent="1" source="255" target="271" edge="1">
                    <mxGeometry width="160" relative="1" as="geometry">
                        <mxPoint x="1358" y="670" as="sourcePoint"/>
                        <mxPoint x="1190" y="514" as="targetPoint"/>
                    </mxGeometry>
                </mxCell>
                <mxCell id="267" value="&lt;i&gt;IAskedTopicRepository&lt;/i&gt;" style="swimlane;fontStyle=0;childLayout=stackLayout;horizontal=1;startSize=30;horizontalStack=0;resizeParent=1;resizeParentMax=0;resizeLast=0;collapsible=1;marginBottom=0;whiteSpace=wrap;html=1;rounded=0;" parent="1" vertex="1">
                    <mxGeometry x="658.5" y="855" width="310" height="60" as="geometry"/>
                </mxCell>
                <mxCell id="270" value="AskForTopicAsync(string): string" style="text;strokeColor=none;fillColor=none;align=left;verticalAlign=middle;spacingLeft=4;spacingRight=4;overflow=hidden;points=[[0,0.5],[1,0.5]];portConstraint=eastwest;rotatable=0;whiteSpace=wrap;html=1;rounded=0;" parent="267" vertex="1">
                    <mxGeometry y="30" width="310" height="30" as="geometry"/>
                </mxCell>
                <mxCell id="268" value="" style="endArrow=none;html=1;entryX=-0.002;entryY=-0.006;entryDx=0;entryDy=0;entryPerimeter=0;exitX=0.999;exitY=0.003;exitDx=0;exitDy=0;exitPerimeter=0;" parent="267" edge="1">
                    <mxGeometry width="50" height="50" relative="1" as="geometry">
                        <mxPoint x="309.69000000000005" y="30.089999999999918" as="sourcePoint"/>
                        <mxPoint x="-0.6199999999998909" y="29.81999999999971" as="targetPoint"/>
                    </mxGeometry>
                </mxCell>
                <mxCell id="271" value="&lt;b&gt;AskedTopicRepository&lt;/b&gt;" style="swimlane;fontStyle=0;childLayout=stackLayout;horizontal=1;startSize=30;horizontalStack=0;resizeParent=1;resizeParentMax=0;resizeLast=0;collapsible=1;marginBottom=0;whiteSpace=wrap;html=1;rounded=0;" parent="1" vertex="1">
                    <mxGeometry x="1010" y="817" width="310" height="60" as="geometry"/>
                </mxCell>
                <mxCell id="272" value="" style="endArrow=none;html=1;entryX=-0.002;entryY=-0.006;entryDx=0;entryDy=0;entryPerimeter=0;exitX=0.999;exitY=0.003;exitDx=0;exitDy=0;exitPerimeter=0;" parent="271" edge="1">
                    <mxGeometry width="50" height="50" relative="1" as="geometry">
                        <mxPoint x="309.69000000000005" y="30.089999999999918" as="sourcePoint"/>
                        <mxPoint x="-0.6199999999998909" y="29.81999999999971" as="targetPoint"/>
                    </mxGeometry>
                </mxCell>
                <mxCell id="273" value="AskForTopicAsync(string): string" style="text;strokeColor=none;fillColor=none;align=left;verticalAlign=middle;spacingLeft=4;spacingRight=4;overflow=hidden;points=[[0,0.5],[1,0.5]];portConstraint=eastwest;rotatable=0;whiteSpace=wrap;html=1;rounded=0;" parent="271" vertex="1">
                    <mxGeometry y="30" width="310" height="30" as="geometry"/>
                </mxCell>
                <mxCell id="274" value="" style="endArrow=block;dashed=1;endFill=0;endSize=12;html=1;entryX=0;entryY=0.25;entryDx=0;entryDy=0;exitX=1;exitY=0.25;exitDx=0;exitDy=0;" parent="1" source="267" target="271" edge="1">
                    <mxGeometry width="160" relative="1" as="geometry">
                        <mxPoint x="1082" y="322" as="sourcePoint"/>
                        <mxPoint x="1008" y="501" as="targetPoint"/>
                    </mxGeometry>
                </mxCell>
                <mxCell id="275" value="Use" style="endArrow=open;endSize=12;dashed=1;html=1;entryX=0.557;entryY=1.07;entryDx=0;entryDy=0;exitX=0.637;exitY=0.003;exitDx=0;exitDy=0;entryPerimeter=0;exitPerimeter=0;" parent="1" source="271" target="264" edge="1">
                    <mxGeometry x="-0.0059" width="160" relative="1" as="geometry">
                        <mxPoint x="1360" y="792" as="sourcePoint"/>
                        <mxPoint x="1280" y="842" as="targetPoint"/>
                        <mxPoint as="offset"/>
                    </mxGeometry>
                </mxCell>
                <mxCell id="281" value="" style="endArrow=block;dashed=1;endFill=0;endSize=12;html=1;exitX=-0.003;exitY=0.072;exitDx=0;exitDy=0;exitPerimeter=0;entryX=0.75;entryY=0;entryDx=0;entryDy=0;" parent="1" source="182" target="191" edge="1">
                    <mxGeometry width="160" relative="1" as="geometry">
                        <mxPoint x="402" y="311" as="sourcePoint"/>
                        <mxPoint x="475" y="390" as="targetPoint"/>
                    </mxGeometry>
                </mxCell>
                <mxCell id="283" value="&lt;b&gt;BanViewModel&lt;/b&gt;" style="swimlane;fontStyle=0;childLayout=stackLayout;horizontal=1;startSize=30;horizontalStack=0;resizeParent=1;resizeParentMax=0;resizeLast=0;collapsible=1;marginBottom=0;whiteSpace=wrap;html=1;rounded=0;" parent="1" vertex="1">
                    <mxGeometry x="40" y="1090" width="140" height="90" as="geometry"/>
                </mxCell>
                <mxCell id="284" value="+ Email: string" style="text;strokeColor=none;fillColor=none;align=left;verticalAlign=middle;spacingLeft=4;spacingRight=4;overflow=hidden;points=[[0,0.5],[1,0.5]];portConstraint=eastwest;rotatable=0;whiteSpace=wrap;html=1;rounded=0;" parent="283" vertex="1">
                    <mxGeometry y="30" width="140" height="30" as="geometry"/>
                </mxCell>
                <mxCell id="286" value="+ BannedTo DateTime" style="text;strokeColor=none;fillColor=none;align=left;verticalAlign=middle;spacingLeft=4;spacingRight=4;overflow=hidden;points=[[0,0.5],[1,0.5]];portConstraint=eastwest;rotatable=0;whiteSpace=wrap;html=1;rounded=0;" parent="283" vertex="1">
                    <mxGeometry y="60" width="140" height="30" as="geometry"/>
                </mxCell>
                <mxCell id="295" value="Use" style="endArrow=open;endSize=12;dashed=1;html=1;entryX=1.01;entryY=0.142;entryDx=0;entryDy=0;entryPerimeter=0;exitX=0;exitY=0.5;exitDx=0;exitDy=0;" parent="1" source="282" target="283" edge="1">
                    <mxGeometry width="160" relative="1" as="geometry">
                        <mxPoint x="316" y="945" as="sourcePoint"/>
                        <mxPoint x="212" y="813" as="targetPoint"/>
                    </mxGeometry>
                </mxCell>
                <mxCell id="315" value="Use" style="endArrow=open;endSize=12;dashed=1;html=1;exitX=1;exitY=0.5;exitDx=0;exitDy=0;entryX=-0.011;entryY=0.138;entryDx=0;entryDy=0;entryPerimeter=0;" parent="1" source="301" target="84" edge="1">
                    <mxGeometry width="160" relative="1" as="geometry">
                        <mxPoint x="446" y="965" as="sourcePoint"/>
                        <mxPoint x="640" y="977.5" as="targetPoint"/>
                    </mxGeometry>
                </mxCell>
                <mxCell id="316" value="Use" style="endArrow=open;endSize=12;dashed=1;html=1;exitX=1.02;exitY=0.195;exitDx=0;exitDy=0;entryX=0;entryY=0.25;entryDx=0;entryDy=0;exitPerimeter=0;" parent="1" source="84" target="15" edge="1">
                    <mxGeometry width="160" relative="1" as="geometry">
                        <mxPoint x="940" y="1030" as="sourcePoint"/>
                        <mxPoint x="1042" y="1167" as="targetPoint"/>
                    </mxGeometry>
                </mxCell>
                <mxCell id="324" value="&lt;b&gt;ChangeInfoViewModel&lt;/b&gt;" style="swimlane;fontStyle=0;childLayout=stackLayout;horizontal=1;startSize=30;horizontalStack=0;resizeParent=1;resizeParentMax=0;resizeLast=0;collapsible=1;marginBottom=0;whiteSpace=wrap;html=1;rounded=0;" parent="1" vertex="1">
                    <mxGeometry x="40" y="1320" width="170" height="90" as="geometry"/>
                </mxCell>
                <mxCell id="325" value="+ Email: string" style="text;strokeColor=none;fillColor=none;align=left;verticalAlign=middle;spacingLeft=4;spacingRight=4;overflow=hidden;points=[[0,0.5],[1,0.5]];portConstraint=eastwest;rotatable=0;whiteSpace=wrap;html=1;rounded=0;" parent="324" vertex="1">
                    <mxGeometry y="30" width="170" height="30" as="geometry"/>
                </mxCell>
                <mxCell id="326" value="+ Password: string" style="text;strokeColor=none;fillColor=none;align=left;verticalAlign=middle;spacingLeft=4;spacingRight=4;overflow=hidden;points=[[0,0.5],[1,0.5]];portConstraint=eastwest;rotatable=0;whiteSpace=wrap;html=1;rounded=0;" parent="324" vertex="1">
                    <mxGeometry y="60" width="170" height="30" as="geometry"/>
                </mxCell>
                <mxCell id="328" value="Use" style="endArrow=open;endSize=12;dashed=1;html=1;entryX=1;entryY=0;entryDx=0;entryDy=0;exitX=0;exitY=0.5;exitDx=0;exitDy=0;" parent="1" source="323" target="324" edge="1">
                    <mxGeometry width="160" relative="1" as="geometry">
                        <mxPoint x="316" y="1100" as="sourcePoint"/>
                        <mxPoint x="211" y="1133" as="targetPoint"/>
                    </mxGeometry>
                </mxCell>
                <mxCell id="336" value="&lt;b&gt;TopicController&lt;/b&gt;" style="swimlane;fontStyle=0;childLayout=stackLayout;horizontal=1;startSize=30;horizontalStack=0;resizeParent=1;resizeParentMax=0;resizeLast=0;collapsible=1;marginBottom=0;whiteSpace=wrap;html=1;rounded=0;" parent="1" vertex="1">
                    <mxGeometry x="1360" y="970" width="284" height="300" as="geometry"/>
                </mxCell>
                <mxCell id="337" value="&lt;span style=&quot;color: rgb(0, 0, 0);&quot;&gt;- _topicService: TopicService&lt;/span&gt;" style="text;strokeColor=none;fillColor=none;align=left;verticalAlign=middle;spacingLeft=4;spacingRight=4;overflow=hidden;points=[[0,0.5],[1,0.5]];portConstraint=eastwest;rotatable=0;whiteSpace=wrap;html=1;rounded=0;" parent="336" vertex="1">
                    <mxGeometry y="30" width="284" height="30" as="geometry"/>
                </mxCell>
                <mxCell id="338" value="" style="endArrow=none;html=1;entryX=-0.002;entryY=1.007;entryDx=0;entryDy=0;entryPerimeter=0;exitX=0.998;exitY=-0.005;exitDx=0;exitDy=0;exitPerimeter=0;" parent="336" source="339" edge="1" target="495">
                    <mxGeometry width="50" height="50" relative="1" as="geometry">
                        <mxPoint x="259.7399999999998" y="60.08999999999992" as="sourcePoint"/>
                        <mxPoint x="-0.5199999999999818" y="59.819999999999936" as="targetPoint"/>
                    </mxGeometry>
                </mxCell>
                <mxCell id="495" value="&lt;span style=&quot;color: rgb(0, 0, 0);&quot;&gt;- _userManager: UserManager(User)&lt;/span&gt;" style="text;strokeColor=none;fillColor=none;align=left;verticalAlign=middle;spacingLeft=4;spacingRight=4;overflow=hidden;points=[[0,0.5],[1,0.5]];portConstraint=eastwest;rotatable=0;whiteSpace=wrap;html=1;rounded=0;" vertex="1" parent="336">
                    <mxGeometry y="60" width="284" height="30" as="geometry"/>
                </mxCell>
                <mxCell id="339" value="Subscribe(string): IActionResult" style="text;strokeColor=none;fillColor=none;align=left;verticalAlign=middle;spacingLeft=4;spacingRight=4;overflow=hidden;points=[[0,0.5],[1,0.5]];portConstraint=eastwest;rotatable=0;whiteSpace=wrap;html=1;rounded=0;" parent="336" vertex="1">
                    <mxGeometry y="90" width="284" height="30" as="geometry"/>
                </mxCell>
                <mxCell id="349" value="UnSubscribe(string): IActionResult" style="text;strokeColor=none;fillColor=none;align=left;verticalAlign=middle;spacingLeft=4;spacingRight=4;overflow=hidden;points=[[0,0.5],[1,0.5]];portConstraint=eastwest;rotatable=0;whiteSpace=wrap;html=1;rounded=0;" parent="336" vertex="1">
                    <mxGeometry y="120" width="284" height="30" as="geometry"/>
                </mxCell>
                <mxCell id="350" value="Search(string): IActionResult" style="text;strokeColor=none;fillColor=none;align=left;verticalAlign=middle;spacingLeft=4;spacingRight=4;overflow=hidden;points=[[0,0.5],[1,0.5]];portConstraint=eastwest;rotatable=0;whiteSpace=wrap;html=1;rounded=0;" parent="336" vertex="1">
                    <mxGeometry y="150" width="284" height="30" as="geometry"/>
                </mxCell>
                <mxCell id="351" value="Request(string): IActionResult" style="text;strokeColor=none;fillColor=none;align=left;verticalAlign=middle;spacingLeft=4;spacingRight=4;overflow=hidden;points=[[0,0.5],[1,0.5]];portConstraint=eastwest;rotatable=0;whiteSpace=wrap;html=1;rounded=0;" parent="336" vertex="1">
                    <mxGeometry y="180" width="284" height="30" as="geometry"/>
                </mxCell>
                <mxCell id="352" value="Delete(string): IActionResult" style="text;strokeColor=none;fillColor=none;align=left;verticalAlign=middle;spacingLeft=4;spacingRight=4;overflow=hidden;points=[[0,0.5],[1,0.5]];portConstraint=eastwest;rotatable=0;whiteSpace=wrap;html=1;rounded=0;" parent="336" vertex="1">
                    <mxGeometry y="210" width="284" height="30" as="geometry"/>
                </mxCell>
                <mxCell id="421" value="Filter(string): IActionResult" style="text;strokeColor=none;fillColor=none;align=left;verticalAlign=middle;spacingLeft=4;spacingRight=4;overflow=hidden;points=[[0,0.5],[1,0.5]];portConstraint=eastwest;rotatable=0;whiteSpace=wrap;html=1;rounded=0;" vertex="1" parent="336">
                    <mxGeometry y="240" width="284" height="30" as="geometry"/>
                </mxCell>
                <mxCell id="494" value="Add(string, string): IActionResult" style="text;strokeColor=none;fillColor=none;align=left;verticalAlign=middle;spacingLeft=4;spacingRight=4;overflow=hidden;points=[[0,0.5],[1,0.5]];portConstraint=eastwest;rotatable=0;whiteSpace=wrap;html=1;rounded=0;" vertex="1" parent="336">
                    <mxGeometry y="270" width="284" height="30" as="geometry"/>
                </mxCell>
                <mxCell id="353" value="Use" style="endArrow=open;endSize=12;dashed=1;html=1;entryX=0.451;entryY=0.95;entryDx=0;entryDy=0;exitX=0.463;exitY=-0.01;exitDx=0;exitDy=0;entryPerimeter=0;exitPerimeter=0;" parent="1" source="336" target="420" edge="1">
                    <mxGeometry x="-0.0059" width="160" relative="1" as="geometry">
                        <mxPoint x="1339" y="1060" as="sourcePoint"/>
                        <mxPoint x="1320" y="982" as="targetPoint"/>
                        <mxPoint as="offset"/>
                    </mxGeometry>
                </mxCell>
                <mxCell id="354" value="&lt;b&gt;UpdateRoleViewModel&lt;/b&gt;" style="swimlane;fontStyle=0;childLayout=stackLayout;horizontal=1;startSize=30;horizontalStack=0;resizeParent=1;resizeParentMax=0;resizeLast=0;collapsible=1;marginBottom=0;whiteSpace=wrap;html=1;rounded=0;" parent="1" vertex="1">
                    <mxGeometry x="40" y="1210" width="170" height="90" as="geometry"/>
                </mxCell>
                <mxCell id="355" value="+ Email: string" style="text;strokeColor=none;fillColor=none;align=left;verticalAlign=middle;spacingLeft=4;spacingRight=4;overflow=hidden;points=[[0,0.5],[1,0.5]];portConstraint=eastwest;rotatable=0;whiteSpace=wrap;html=1;rounded=0;" parent="354" vertex="1">
                    <mxGeometry y="30" width="170" height="30" as="geometry"/>
                </mxCell>
                <mxCell id="356" value="+ NewRole: string" style="text;strokeColor=none;fillColor=none;align=left;verticalAlign=middle;spacingLeft=4;spacingRight=4;overflow=hidden;points=[[0,0.5],[1,0.5]];portConstraint=eastwest;rotatable=0;whiteSpace=wrap;html=1;rounded=0;" parent="354" vertex="1">
                    <mxGeometry y="60" width="170" height="30" as="geometry"/>
                </mxCell>
                <mxCell id="357" value="Use" style="endArrow=open;endSize=12;dashed=1;html=1;entryX=1.014;entryY=0.189;entryDx=0;entryDy=0;exitX=-0.001;exitY=0.689;exitDx=0;exitDy=0;exitPerimeter=0;entryPerimeter=0;" parent="1" source="300" target="354" edge="1">
                    <mxGeometry width="160" relative="1" as="geometry">
                        <mxPoint x="316" y="1160" as="sourcePoint"/>
                        <mxPoint x="220" y="1330" as="targetPoint"/>
                    </mxGeometry>
                </mxCell>
                <mxCell id="358" value="&lt;i&gt;IPostRepository&lt;/i&gt;" style="swimlane;fontStyle=0;childLayout=stackLayout;horizontal=1;startSize=30;horizontalStack=0;resizeParent=1;resizeParentMax=0;resizeLast=0;collapsible=1;marginBottom=0;whiteSpace=wrap;html=1;rounded=0;" vertex="1" parent="1">
                    <mxGeometry x="1890" y="160" width="320" height="150" as="geometry"/>
                </mxCell>
                <mxCell id="359" value="GetByNameAsync(string): Post" style="text;strokeColor=none;fillColor=none;align=left;verticalAlign=middle;spacingLeft=4;spacingRight=4;overflow=hidden;points=[[0,0.5],[1,0.5]];portConstraint=eastwest;rotatable=0;whiteSpace=wrap;html=1;rounded=0;" vertex="1" parent="358">
                    <mxGeometry y="30" width="320" height="30" as="geometry"/>
                </mxCell>
                <mxCell id="360" value="" style="endArrow=none;html=1;entryX=-0.002;entryY=-0.006;entryDx=0;entryDy=0;entryPerimeter=0;exitX=0.999;exitY=0.003;exitDx=0;exitDy=0;exitPerimeter=0;" edge="1" parent="358" source="359" target="359">
                    <mxGeometry width="50" height="50" relative="1" as="geometry">
                        <mxPoint x="170" y="60" as="sourcePoint"/>
                        <mxPoint x="3" y="60" as="targetPoint"/>
                    </mxGeometry>
                </mxCell>
                <mxCell id="361" value="GetPostsByUserNameAsync(string):&amp;nbsp;IEnumerable&amp;lt;Post&amp;gt;" style="text;strokeColor=none;fillColor=none;align=left;verticalAlign=middle;spacingLeft=4;spacingRight=4;overflow=hidden;points=[[0,0.5],[1,0.5]];portConstraint=eastwest;rotatable=0;whiteSpace=wrap;html=1;rounded=0;" vertex="1" parent="358">
                    <mxGeometry y="60" width="320" height="30" as="geometry"/>
                </mxCell>
                <mxCell id="413" value="SubscribeUserAsync(string, string): string" style="text;strokeColor=none;fillColor=none;align=left;verticalAlign=middle;spacingLeft=4;spacingRight=4;overflow=hidden;points=[[0,0.5],[1,0.5]];portConstraint=eastwest;rotatable=0;whiteSpace=wrap;html=1;rounded=0;" vertex="1" parent="358">
                    <mxGeometry y="90" width="320" height="30" as="geometry"/>
                </mxCell>
                <mxCell id="414" value="UnSubscribeUserAsync(string, string): string" style="text;strokeColor=none;fillColor=none;align=left;verticalAlign=middle;spacingLeft=4;spacingRight=4;overflow=hidden;points=[[0,0.5],[1,0.5]];portConstraint=eastwest;rotatable=0;whiteSpace=wrap;html=1;rounded=0;" vertex="1" parent="358">
                    <mxGeometry y="120" width="320" height="30" as="geometry"/>
                </mxCell>
                <mxCell id="366" value="&lt;b&gt;PostRepository&lt;/b&gt;" style="swimlane;fontStyle=0;childLayout=stackLayout;horizontal=1;startSize=30;horizontalStack=0;resizeParent=1;resizeParentMax=0;resizeLast=0;collapsible=1;marginBottom=0;whiteSpace=wrap;html=1;rounded=0;" vertex="1" parent="1">
                    <mxGeometry x="1910" y="350" width="320" height="150" as="geometry"/>
                </mxCell>
                <mxCell id="367" value="&lt;span style=&quot;color: rgb(0, 0, 0);&quot;&gt;GetByNameAsync(string): Post&lt;/span&gt;" style="text;strokeColor=none;fillColor=none;align=left;verticalAlign=middle;spacingLeft=4;spacingRight=4;overflow=hidden;points=[[0,0.5],[1,0.5]];portConstraint=eastwest;rotatable=0;whiteSpace=wrap;html=1;rounded=0;" vertex="1" parent="366">
                    <mxGeometry y="30" width="320" height="30" as="geometry"/>
                </mxCell>
                <mxCell id="368" value="" style="endArrow=none;html=1;entryX=-0.002;entryY=-0.006;entryDx=0;entryDy=0;entryPerimeter=0;exitX=0.999;exitY=0.003;exitDx=0;exitDy=0;exitPerimeter=0;" edge="1" parent="366" source="367" target="367">
                    <mxGeometry width="50" height="50" relative="1" as="geometry">
                        <mxPoint x="170" y="60" as="sourcePoint"/>
                        <mxPoint x="3" y="60" as="targetPoint"/>
                    </mxGeometry>
                </mxCell>
                <mxCell id="369" value="&lt;span style=&quot;color: rgb(0, 0, 0);&quot;&gt;GetPostsByUserNameAsync(string):&amp;nbsp;IEnumerable&amp;lt;Post&amp;gt;&lt;/span&gt;" style="text;strokeColor=none;fillColor=none;align=left;verticalAlign=middle;spacingLeft=4;spacingRight=4;overflow=hidden;points=[[0,0.5],[1,0.5]];portConstraint=eastwest;rotatable=0;whiteSpace=wrap;html=1;rounded=0;" vertex="1" parent="366">
                    <mxGeometry y="60" width="320" height="30" as="geometry"/>
                </mxCell>
                <mxCell id="415" value="&lt;span style=&quot;color: rgb(0, 0, 0); font-family: Helvetica; font-size: 12px; font-style: normal; font-variant-ligatures: normal; font-variant-caps: normal; font-weight: 400; letter-spacing: normal; orphans: 2; text-align: left; text-indent: 0px; text-transform: none; widows: 2; word-spacing: 0px; -webkit-text-stroke-width: 0px; white-space: normal; background-color: rgb(251, 251, 251); text-decoration-thickness: initial; text-decoration-style: initial; text-decoration-color: initial; float: none; display: inline !important;&quot;&gt;SubscribeUserAsync(string, string): string&lt;/span&gt;" style="text;strokeColor=none;fillColor=none;align=left;verticalAlign=middle;spacingLeft=4;spacingRight=4;overflow=hidden;points=[[0,0.5],[1,0.5]];portConstraint=eastwest;rotatable=0;whiteSpace=wrap;html=1;rounded=0;" vertex="1" parent="366">
                    <mxGeometry y="90" width="320" height="30" as="geometry"/>
                </mxCell>
                <mxCell id="416" value="&lt;span style=&quot;color: rgb(0, 0, 0);&quot;&gt;UnSubscribeUserAsync(string, string): string&lt;/span&gt;" style="text;strokeColor=none;fillColor=none;align=left;verticalAlign=middle;spacingLeft=4;spacingRight=4;overflow=hidden;points=[[0,0.5],[1,0.5]];portConstraint=eastwest;rotatable=0;whiteSpace=wrap;html=1;rounded=0;" vertex="1" parent="366">
                    <mxGeometry y="120" width="320" height="30" as="geometry"/>
                </mxCell>
                <mxCell id="370" value="" style="endArrow=block;dashed=1;endFill=0;endSize=12;html=1;entryX=0.25;entryY=0;entryDx=0;entryDy=0;exitX=0.463;exitY=1.148;exitDx=0;exitDy=0;exitPerimeter=0;" edge="1" parent="1" source="414" target="366">
                    <mxGeometry width="160" relative="1" as="geometry">
                        <mxPoint x="1990" y="450" as="sourcePoint"/>
                        <mxPoint x="2021" y="467.5" as="targetPoint"/>
                    </mxGeometry>
                </mxCell>
                <mxCell id="372" value="Use" style="endArrow=open;endSize=12;dashed=1;html=1;entryX=-0.029;entryY=0.116;entryDx=0;entryDy=0;exitX=1.012;exitY=-0.153;exitDx=0;exitDy=0;exitPerimeter=0;entryPerimeter=0;" edge="1" parent="1" source="367" target="51">
                    <mxGeometry width="160" relative="1" as="geometry">
                        <mxPoint x="2380" y="430" as="sourcePoint"/>
                        <mxPoint x="2530" y="500" as="targetPoint"/>
                    </mxGeometry>
                </mxCell>
                <mxCell id="381" value="&lt;i&gt;IPostService&lt;/i&gt;" style="swimlane;fontStyle=0;childLayout=stackLayout;horizontal=1;startSize=30;horizontalStack=0;resizeParent=1;resizeParentMax=0;resizeLast=0;collapsible=1;marginBottom=0;whiteSpace=wrap;html=1;rounded=0;" vertex="1" parent="1">
                    <mxGeometry x="2280" y="505" width="260" height="270" as="geometry"/>
                </mxCell>
                <mxCell id="382" value="SubscribeUserAsync(string, string): string" style="text;strokeColor=none;fillColor=none;align=left;verticalAlign=middle;spacingLeft=4;spacingRight=4;overflow=hidden;points=[[0,0.5],[1,0.5]];portConstraint=eastwest;rotatable=0;whiteSpace=wrap;html=1;rounded=0;" vertex="1" parent="381">
                    <mxGeometry y="30" width="260" height="30" as="geometry"/>
                </mxCell>
                <mxCell id="383" value="" style="endArrow=none;html=1;entryX=-0.002;entryY=-0.006;entryDx=0;entryDy=0;entryPerimeter=0;exitX=0.999;exitY=0.003;exitDx=0;exitDy=0;exitPerimeter=0;" edge="1" parent="381" source="382" target="382">
                    <mxGeometry width="50" height="50" relative="1" as="geometry">
                        <mxPoint x="170" y="60" as="sourcePoint"/>
                        <mxPoint x="3" y="60" as="targetPoint"/>
                    </mxGeometry>
                </mxCell>
                <mxCell id="384" value="UnSubscribeUserAsync(string, string): string" style="text;strokeColor=none;fillColor=none;align=left;verticalAlign=middle;spacingLeft=4;spacingRight=4;overflow=hidden;points=[[0,0.5],[1,0.5]];portConstraint=eastwest;rotatable=0;whiteSpace=wrap;html=1;rounded=0;" vertex="1" parent="381">
                    <mxGeometry y="60" width="260" height="30" as="geometry"/>
                </mxCell>
                <mxCell id="385" value="FindPostsAsync(string): List&amp;lt;Post&amp;gt;" style="text;strokeColor=none;fillColor=none;align=left;verticalAlign=middle;spacingLeft=4;spacingRight=4;overflow=hidden;points=[[0,0.5],[1,0.5]];portConstraint=eastwest;rotatable=0;whiteSpace=wrap;html=1;rounded=0;" vertex="1" parent="381">
                    <mxGeometry y="90" width="260" height="30" as="geometry"/>
                </mxCell>
                <mxCell id="418" value="&lt;span style=&quot;color: rgb(0, 0, 0);&quot;&gt;AddPostAsync(string): string&lt;/span&gt;" style="text;strokeColor=none;fillColor=none;align=left;verticalAlign=middle;spacingLeft=4;spacingRight=4;overflow=hidden;points=[[0,0.5],[1,0.5]];portConstraint=eastwest;rotatable=0;whiteSpace=wrap;html=1;rounded=0;" vertex="1" parent="381">
                    <mxGeometry y="120" width="260" height="30" as="geometry"/>
                </mxCell>
                <mxCell id="476" value="&lt;span style=&quot;color: rgb(0, 0, 0);&quot;&gt;DeletePostAsync(string): string&lt;/span&gt;" style="text;strokeColor=none;fillColor=none;align=left;verticalAlign=middle;spacingLeft=4;spacingRight=4;overflow=hidden;points=[[0,0.5],[1,0.5]];portConstraint=eastwest;rotatable=0;whiteSpace=wrap;html=1;rounded=0;" vertex="1" parent="381">
                    <mxGeometry y="150" width="260" height="30" as="geometry"/>
                </mxCell>
                <mxCell id="469" value="&lt;span style=&quot;color: rgb(0, 0, 0);&quot;&gt;AddCommentAsync(string): string&lt;/span&gt;" style="text;strokeColor=none;fillColor=none;align=left;verticalAlign=middle;spacingLeft=4;spacingRight=4;overflow=hidden;points=[[0,0.5],[1,0.5]];portConstraint=eastwest;rotatable=0;whiteSpace=wrap;html=1;rounded=0;" vertex="1" parent="381">
                    <mxGeometry y="180" width="260" height="30" as="geometry"/>
                </mxCell>
                <mxCell id="470" value="&lt;span style=&quot;color: rgb(0, 0, 0);&quot;&gt;DeleteCommentAsync(string): string&lt;/span&gt;" style="text;strokeColor=none;fillColor=none;align=left;verticalAlign=middle;spacingLeft=4;spacingRight=4;overflow=hidden;points=[[0,0.5],[1,0.5]];portConstraint=eastwest;rotatable=0;whiteSpace=wrap;html=1;rounded=0;" vertex="1" parent="381">
                    <mxGeometry y="210" width="260" height="30" as="geometry"/>
                </mxCell>
                <mxCell id="491" value="&lt;span style=&quot;color: rgb(0, 0, 0);&quot;&gt;DownloadFileAsync(File): string&lt;/span&gt;" style="text;strokeColor=none;fillColor=none;align=left;verticalAlign=middle;spacingLeft=4;spacingRight=4;overflow=hidden;points=[[0,0.5],[1,0.5]];portConstraint=eastwest;rotatable=0;whiteSpace=wrap;html=1;rounded=0;" vertex="1" parent="381">
                    <mxGeometry y="240" width="260" height="30" as="geometry"/>
                </mxCell>
                <mxCell id="387" value="" style="endArrow=block;dashed=1;endFill=0;endSize=12;html=1;entryX=0.706;entryY=0.001;entryDx=0;entryDy=0;exitX=0;exitY=0.5;exitDx=0;exitDy=0;entryPerimeter=0;" edge="1" parent="1" source="384" target="388">
                    <mxGeometry width="160" relative="1" as="geometry">
                        <mxPoint x="2250" y="640" as="sourcePoint"/>
                        <mxPoint x="2170" y="750" as="targetPoint"/>
                    </mxGeometry>
                </mxCell>
                <mxCell id="388" value="&lt;b&gt;PostService&lt;/b&gt;" style="swimlane;fontStyle=0;childLayout=stackLayout;horizontal=1;startSize=30;horizontalStack=0;resizeParent=1;resizeParentMax=0;resizeLast=0;collapsible=1;marginBottom=0;whiteSpace=wrap;html=1;rounded=0;" vertex="1" parent="1">
                    <mxGeometry x="1958" y="800" width="260" height="270" as="geometry"/>
                </mxCell>
                <mxCell id="389" value="SubscribeUserAsync(string, string): string" style="text;strokeColor=none;fillColor=none;align=left;verticalAlign=middle;spacingLeft=4;spacingRight=4;overflow=hidden;points=[[0,0.5],[1,0.5]];portConstraint=eastwest;rotatable=0;whiteSpace=wrap;html=1;rounded=0;" vertex="1" parent="388">
                    <mxGeometry y="30" width="260" height="30" as="geometry"/>
                </mxCell>
                <mxCell id="390" value="" style="endArrow=none;html=1;entryX=-0.002;entryY=-0.006;entryDx=0;entryDy=0;entryPerimeter=0;exitX=0.999;exitY=0.003;exitDx=0;exitDy=0;exitPerimeter=0;" edge="1" parent="388" source="389" target="389">
                    <mxGeometry width="50" height="50" relative="1" as="geometry">
                        <mxPoint x="170" y="60" as="sourcePoint"/>
                        <mxPoint x="3" y="60" as="targetPoint"/>
                    </mxGeometry>
                </mxCell>
                <mxCell id="391" value="UnSubscribeUserAsync(string, string): string" style="text;strokeColor=none;fillColor=none;align=left;verticalAlign=middle;spacingLeft=4;spacingRight=4;overflow=hidden;points=[[0,0.5],[1,0.5]];portConstraint=eastwest;rotatable=0;whiteSpace=wrap;html=1;rounded=0;" vertex="1" parent="388">
                    <mxGeometry y="60" width="260" height="30" as="geometry"/>
                </mxCell>
                <mxCell id="392" value="FindPostsAsync(string): List&amp;lt;Post&amp;gt;" style="text;strokeColor=none;fillColor=none;align=left;verticalAlign=middle;spacingLeft=4;spacingRight=4;overflow=hidden;points=[[0,0.5],[1,0.5]];portConstraint=eastwest;rotatable=0;whiteSpace=wrap;html=1;rounded=0;" vertex="1" parent="388">
                    <mxGeometry y="90" width="260" height="30" as="geometry"/>
                </mxCell>
                <mxCell id="477" value="&lt;span style=&quot;color: rgb(0, 0, 0);&quot;&gt;AddPostAsync(string): string&lt;/span&gt;" style="text;strokeColor=none;fillColor=none;align=left;verticalAlign=middle;spacingLeft=4;spacingRight=4;overflow=hidden;points=[[0,0.5],[1,0.5]];portConstraint=eastwest;rotatable=0;whiteSpace=wrap;html=1;rounded=0;" vertex="1" parent="388">
                    <mxGeometry y="120" width="260" height="30" as="geometry"/>
                </mxCell>
                <mxCell id="394" value="DeletePostAsync(string): string" style="text;strokeColor=none;fillColor=none;align=left;verticalAlign=middle;spacingLeft=4;spacingRight=4;overflow=hidden;points=[[0,0.5],[1,0.5]];portConstraint=eastwest;rotatable=0;whiteSpace=wrap;html=1;rounded=0;" vertex="1" parent="388">
                    <mxGeometry y="150" width="260" height="30" as="geometry"/>
                </mxCell>
                <mxCell id="472" value="&lt;span style=&quot;color: rgb(0, 0, 0);&quot;&gt;AddCommentAsync(string): string&lt;/span&gt;" style="text;strokeColor=none;fillColor=none;align=left;verticalAlign=middle;spacingLeft=4;spacingRight=4;overflow=hidden;points=[[0,0.5],[1,0.5]];portConstraint=eastwest;rotatable=0;whiteSpace=wrap;html=1;rounded=0;" vertex="1" parent="388">
                    <mxGeometry y="180" width="260" height="30" as="geometry"/>
                </mxCell>
                <mxCell id="473" value="&lt;span style=&quot;color: rgb(0, 0, 0);&quot;&gt;DeleteCommentAsync(string): string&lt;/span&gt;" style="text;strokeColor=none;fillColor=none;align=left;verticalAlign=middle;spacingLeft=4;spacingRight=4;overflow=hidden;points=[[0,0.5],[1,0.5]];portConstraint=eastwest;rotatable=0;whiteSpace=wrap;html=1;rounded=0;" vertex="1" parent="388">
                    <mxGeometry y="210" width="260" height="30" as="geometry"/>
                </mxCell>
                <mxCell id="490" value="&lt;span style=&quot;color: rgb(0, 0, 0);&quot;&gt;DownloadFileAsync(File): string&lt;/span&gt;" style="text;strokeColor=none;fillColor=none;align=left;verticalAlign=middle;spacingLeft=4;spacingRight=4;overflow=hidden;points=[[0,0.5],[1,0.5]];portConstraint=eastwest;rotatable=0;whiteSpace=wrap;html=1;rounded=0;" vertex="1" parent="388">
                    <mxGeometry y="240" width="260" height="30" as="geometry"/>
                </mxCell>
                <mxCell id="395" value="Use" style="endArrow=open;endSize=12;dashed=1;html=1;exitX=0.5;exitY=0;exitDx=0;exitDy=0;entryX=0.292;entryY=1.156;entryDx=0;entryDy=0;entryPerimeter=0;" edge="1" parent="1" source="388" target="416">
                    <mxGeometry width="160" relative="1" as="geometry">
                        <mxPoint x="2094" y="760" as="sourcePoint"/>
                        <mxPoint x="2130" y="610" as="targetPoint"/>
                    </mxGeometry>
                </mxCell>
                <mxCell id="396" value="&lt;b&gt;PostController&lt;/b&gt;" style="swimlane;fontStyle=0;childLayout=stackLayout;horizontal=1;startSize=30;horizontalStack=0;resizeParent=1;resizeParentMax=0;resizeLast=0;collapsible=1;marginBottom=0;whiteSpace=wrap;html=1;rounded=0;" vertex="1" parent="1">
                    <mxGeometry x="1958" y="1140" width="284" height="300" as="geometry"/>
                </mxCell>
                <mxCell id="397" value="&lt;span style=&quot;color: rgb(0, 0, 0);&quot;&gt;- _postService: PostService&lt;/span&gt;" style="text;strokeColor=none;fillColor=none;align=left;verticalAlign=middle;spacingLeft=4;spacingRight=4;overflow=hidden;points=[[0,0.5],[1,0.5]];portConstraint=eastwest;rotatable=0;whiteSpace=wrap;html=1;rounded=0;" vertex="1" parent="396">
                    <mxGeometry y="30" width="284" height="30" as="geometry"/>
                </mxCell>
                <mxCell id="398" value="" style="endArrow=none;html=1;entryX=-0.002;entryY=-0.006;entryDx=0;entryDy=0;entryPerimeter=0;exitX=0.998;exitY=-0.005;exitDx=0;exitDy=0;exitPerimeter=0;" edge="1" parent="396" source="399">
                    <mxGeometry width="50" height="50" relative="1" as="geometry">
                        <mxPoint x="259.7399999999998" y="60.08999999999992" as="sourcePoint"/>
                        <mxPoint x="-0.5199999999999818" y="59.819999999999936" as="targetPoint"/>
                    </mxGeometry>
                </mxCell>
                <mxCell id="399" value="Subscribe(string): IActionResult" style="text;strokeColor=none;fillColor=none;align=left;verticalAlign=middle;spacingLeft=4;spacingRight=4;overflow=hidden;points=[[0,0.5],[1,0.5]];portConstraint=eastwest;rotatable=0;whiteSpace=wrap;html=1;rounded=0;" vertex="1" parent="396">
                    <mxGeometry y="60" width="284" height="30" as="geometry"/>
                </mxCell>
                <mxCell id="400" value="UnSubscribe(string): IActionResult" style="text;strokeColor=none;fillColor=none;align=left;verticalAlign=middle;spacingLeft=4;spacingRight=4;overflow=hidden;points=[[0,0.5],[1,0.5]];portConstraint=eastwest;rotatable=0;whiteSpace=wrap;html=1;rounded=0;" vertex="1" parent="396">
                    <mxGeometry y="90" width="284" height="30" as="geometry"/>
                </mxCell>
                <mxCell id="401" value="Search(string): IActionResult" style="text;strokeColor=none;fillColor=none;align=left;verticalAlign=middle;spacingLeft=4;spacingRight=4;overflow=hidden;points=[[0,0.5],[1,0.5]];portConstraint=eastwest;rotatable=0;whiteSpace=wrap;html=1;rounded=0;" vertex="1" parent="396">
                    <mxGeometry y="120" width="284" height="30" as="geometry"/>
                </mxCell>
                <mxCell id="478" value="AddPost(string): IActionResult" style="text;strokeColor=none;fillColor=none;align=left;verticalAlign=middle;spacingLeft=4;spacingRight=4;overflow=hidden;points=[[0,0.5],[1,0.5]];portConstraint=eastwest;rotatable=0;whiteSpace=wrap;html=1;rounded=0;" vertex="1" parent="396">
                    <mxGeometry y="150" width="284" height="30" as="geometry"/>
                </mxCell>
                <mxCell id="403" value="DeletePost(string): IActionResult" style="text;strokeColor=none;fillColor=none;align=left;verticalAlign=middle;spacingLeft=4;spacingRight=4;overflow=hidden;points=[[0,0.5],[1,0.5]];portConstraint=eastwest;rotatable=0;whiteSpace=wrap;html=1;rounded=0;" vertex="1" parent="396">
                    <mxGeometry y="180" width="284" height="30" as="geometry"/>
                </mxCell>
                <mxCell id="474" value="AddComment(string): IActionResult" style="text;strokeColor=none;fillColor=none;align=left;verticalAlign=middle;spacingLeft=4;spacingRight=4;overflow=hidden;points=[[0,0.5],[1,0.5]];portConstraint=eastwest;rotatable=0;whiteSpace=wrap;html=1;rounded=0;" vertex="1" parent="396">
                    <mxGeometry y="210" width="284" height="30" as="geometry"/>
                </mxCell>
                <mxCell id="475" value="DeleteComment(string): IActionResult" style="text;strokeColor=none;fillColor=none;align=left;verticalAlign=middle;spacingLeft=4;spacingRight=4;overflow=hidden;points=[[0,0.5],[1,0.5]];portConstraint=eastwest;rotatable=0;whiteSpace=wrap;html=1;rounded=0;" vertex="1" parent="396">
                    <mxGeometry y="240" width="284" height="30" as="geometry"/>
                </mxCell>
                <mxCell id="489" value="DownloadFile(File): IFileResult" style="text;strokeColor=none;fillColor=none;align=left;verticalAlign=middle;spacingLeft=4;spacingRight=4;overflow=hidden;points=[[0,0.5],[1,0.5]];portConstraint=eastwest;rotatable=0;whiteSpace=wrap;html=1;rounded=0;" vertex="1" parent="396">
                    <mxGeometry y="270" width="284" height="30" as="geometry"/>
                </mxCell>
                <mxCell id="404" value="Use" style="endArrow=open;endSize=12;dashed=1;html=1;entryX=0.546;entryY=1.104;entryDx=0;entryDy=0;exitX=0.411;exitY=0.009;exitDx=0;exitDy=0;entryPerimeter=0;exitPerimeter=0;" edge="1" parent="1" source="396" target="490">
                    <mxGeometry x="-0.0059" width="160" relative="1" as="geometry">
                        <mxPoint x="2078" y="998" as="sourcePoint"/>
                        <mxPoint x="2070" y="930" as="targetPoint"/>
                        <mxPoint as="offset"/>
                    </mxGeometry>
                </mxCell>
                <mxCell id="423" value="Use" style="endArrow=open;endSize=12;dashed=1;html=1;entryX=-0.028;entryY=0.185;entryDx=0;entryDy=0;exitX=1;exitY=0.5;exitDx=0;exitDy=0;entryPerimeter=0;" edge="1" parent="1" source="255" target="98">
                    <mxGeometry x="-0.0059" width="160" relative="1" as="geometry">
                        <mxPoint x="1660" y="815" as="sourcePoint"/>
                        <mxPoint x="1641" y="737" as="targetPoint"/>
                        <mxPoint as="offset"/>
                    </mxGeometry>
                </mxCell>
                <mxCell id="424" value="Use" style="endArrow=open;endSize=12;dashed=1;html=1;entryX=0;entryY=0;entryDx=0;entryDy=0;exitX=1;exitY=0.5;exitDx=0;exitDy=0;" edge="1" parent="1" source="276" target="58">
                    <mxGeometry x="-0.0059" width="160" relative="1" as="geometry">
                        <mxPoint x="1630" y="813" as="sourcePoint"/>
                        <mxPoint x="1686" y="813" as="targetPoint"/>
                        <mxPoint as="offset"/>
                    </mxGeometry>
                </mxCell>
                <mxCell id="425" value="&lt;b&gt;UserPost&lt;/b&gt;" style="swimlane;fontStyle=0;childLayout=stackLayout;horizontal=1;startSize=30;horizontalStack=0;resizeParent=1;resizeParentMax=0;resizeLast=0;collapsible=1;marginBottom=0;whiteSpace=wrap;html=1;rounded=0;" vertex="1" parent="1">
                    <mxGeometry x="2270" y="115" width="140" height="90" as="geometry"/>
                </mxCell>
                <mxCell id="426" value="+ UserId: Guid" style="text;strokeColor=none;fillColor=none;align=left;verticalAlign=middle;spacingLeft=4;spacingRight=4;overflow=hidden;points=[[0,0.5],[1,0.5]];portConstraint=eastwest;rotatable=0;whiteSpace=wrap;html=1;rounded=0;" vertex="1" parent="425">
                    <mxGeometry y="30" width="140" height="30" as="geometry"/>
                </mxCell>
                <mxCell id="433" value="+ PostId: Guid" style="text;strokeColor=none;fillColor=none;align=left;verticalAlign=middle;spacingLeft=4;spacingRight=4;overflow=hidden;points=[[0,0.5],[1,0.5]];portConstraint=eastwest;rotatable=0;whiteSpace=wrap;html=1;rounded=0;" vertex="1" parent="425">
                    <mxGeometry y="60" width="140" height="30" as="geometry"/>
                </mxCell>
                <mxCell id="434" value="&lt;i&gt;IUserPostRepository&lt;/i&gt;" style="swimlane;fontStyle=0;childLayout=stackLayout;horizontal=1;startSize=30;horizontalStack=0;resizeParent=1;resizeParentMax=0;resizeLast=0;collapsible=1;marginBottom=0;whiteSpace=wrap;html=1;rounded=0;" vertex="1" parent="1">
                    <mxGeometry x="2480" y="40" width="320" height="90" as="geometry"/>
                </mxCell>
                <mxCell id="435" value="&lt;span style=&quot;color: rgb(0, 0, 0); font-family: Helvetica; font-size: 12px; font-style: normal; font-variant-ligatures: normal; font-variant-caps: normal; font-weight: 400; letter-spacing: normal; orphans: 2; text-align: left; text-indent: 0px; text-transform: none; widows: 2; word-spacing: 0px; -webkit-text-stroke-width: 0px; white-space: normal; background-color: rgb(251, 251, 251); text-decoration-thickness: initial; text-decoration-style: initial; text-decoration-color: initial; float: none; display: inline !important;&quot;&gt;SubscribeUserAsync(string, string): string&lt;/span&gt;" style="text;strokeColor=none;fillColor=none;align=left;verticalAlign=middle;spacingLeft=4;spacingRight=4;overflow=hidden;points=[[0,0.5],[1,0.5]];portConstraint=eastwest;rotatable=0;whiteSpace=wrap;html=1;rounded=0;" vertex="1" parent="434">
                    <mxGeometry y="30" width="320" height="30" as="geometry"/>
                </mxCell>
                <mxCell id="436" value="" style="endArrow=none;html=1;entryX=-0.002;entryY=-0.006;entryDx=0;entryDy=0;entryPerimeter=0;exitX=0.999;exitY=0.003;exitDx=0;exitDy=0;exitPerimeter=0;" edge="1" parent="434" source="435" target="435">
                    <mxGeometry width="50" height="50" relative="1" as="geometry">
                        <mxPoint x="170" y="60" as="sourcePoint"/>
                        <mxPoint x="3" y="60" as="targetPoint"/>
                    </mxGeometry>
                </mxCell>
                <mxCell id="437" value="&lt;span style=&quot;color: rgb(0, 0, 0);&quot;&gt;UnSubscribeUserAsync(string, string): string&lt;/span&gt;" style="text;strokeColor=none;fillColor=none;align=left;verticalAlign=middle;spacingLeft=4;spacingRight=4;overflow=hidden;points=[[0,0.5],[1,0.5]];portConstraint=eastwest;rotatable=0;whiteSpace=wrap;html=1;rounded=0;" vertex="1" parent="434">
                    <mxGeometry y="60" width="320" height="30" as="geometry"/>
                </mxCell>
                <mxCell id="440" value="&lt;b&gt;UserPostRepository&lt;/b&gt;" style="swimlane;fontStyle=0;childLayout=stackLayout;horizontal=1;startSize=30;horizontalStack=0;resizeParent=1;resizeParentMax=0;resizeLast=0;collapsible=1;marginBottom=0;whiteSpace=wrap;html=1;rounded=0;" vertex="1" parent="1">
                    <mxGeometry x="2517" y="205" width="310" height="120" as="geometry"/>
                </mxCell>
                <mxCell id="441" value="" style="endArrow=none;html=1;entryX=-0.002;entryY=-0.006;entryDx=0;entryDy=0;entryPerimeter=0;exitX=0.999;exitY=0.003;exitDx=0;exitDy=0;exitPerimeter=0;" edge="1" parent="440">
                    <mxGeometry width="50" height="50" relative="1" as="geometry">
                        <mxPoint x="309.69000000000005" y="30.089999999999918" as="sourcePoint"/>
                        <mxPoint x="-0.6199999999998909" y="29.81999999999971" as="targetPoint"/>
                    </mxGeometry>
                </mxCell>
                <mxCell id="442" value="&lt;span style=&quot;color: rgb(0, 0, 0);&quot;&gt;- _userManager: UserManager(User)&lt;/span&gt;" style="text;strokeColor=none;fillColor=none;align=left;verticalAlign=middle;spacingLeft=4;spacingRight=4;overflow=hidden;points=[[0,0.5],[1,0.5]];portConstraint=eastwest;rotatable=0;whiteSpace=wrap;html=1;rounded=0;" vertex="1" parent="440">
                    <mxGeometry y="30" width="310" height="30" as="geometry"/>
                </mxCell>
                <mxCell id="443" value="" style="endArrow=none;html=1;entryX=-0.002;entryY=-0.006;entryDx=0;entryDy=0;entryPerimeter=0;exitX=1;exitY=-0.02;exitDx=0;exitDy=0;exitPerimeter=0;" edge="1" parent="440" source="444">
                    <mxGeometry width="50" height="50" relative="1" as="geometry">
                        <mxPoint x="310" y="59" as="sourcePoint"/>
                        <mxPoint y="59.09000000000003" as="targetPoint"/>
                    </mxGeometry>
                </mxCell>
                <mxCell id="444" value="SubscribeUserAsync(string, string): string" style="text;strokeColor=none;fillColor=none;align=left;verticalAlign=middle;spacingLeft=4;spacingRight=4;overflow=hidden;points=[[0,0.5],[1,0.5]];portConstraint=eastwest;rotatable=0;whiteSpace=wrap;html=1;rounded=0;" vertex="1" parent="440">
                    <mxGeometry y="60" width="310" height="30" as="geometry"/>
                </mxCell>
                <mxCell id="445" value="UnSubscribeUserAsync(string, string): string" style="text;strokeColor=none;fillColor=none;align=left;verticalAlign=middle;spacingLeft=4;spacingRight=4;overflow=hidden;points=[[0,0.5],[1,0.5]];portConstraint=eastwest;rotatable=0;whiteSpace=wrap;html=1;rounded=0;" vertex="1" parent="440">
                    <mxGeometry y="90" width="310" height="30" as="geometry"/>
                </mxCell>
                <mxCell id="446" value="" style="endArrow=block;dashed=1;endFill=0;endSize=12;html=1;entryX=0.352;entryY=-0.001;entryDx=0;entryDy=0;entryPerimeter=0;" edge="1" parent="1" source="437" target="440">
                    <mxGeometry width="160" relative="1" as="geometry">
                        <mxPoint x="2701" y="150" as="sourcePoint"/>
                        <mxPoint x="2600" y="180" as="targetPoint"/>
                    </mxGeometry>
                </mxCell>
                <mxCell id="448" value="Use" style="endArrow=open;endSize=12;dashed=1;html=1;entryX=1.022;entryY=0.045;entryDx=0;entryDy=0;exitX=0;exitY=0.5;exitDx=0;exitDy=0;entryPerimeter=0;" edge="1" parent="1" source="444" target="433">
                    <mxGeometry width="160" relative="1" as="geometry">
                        <mxPoint x="2517" y="220" as="sourcePoint"/>
                        <mxPoint x="2446" y="284" as="targetPoint"/>
                    </mxGeometry>
                </mxCell>
                <mxCell id="449" value="" style="endArrow=block;dashed=1;endFill=0;endSize=12;html=1;exitX=0.542;exitY=1.027;exitDx=0;exitDy=0;exitPerimeter=0;entryX=0.006;entryY=0.138;entryDx=0;entryDy=0;entryPerimeter=0;" edge="1" parent="1" target="440">
                    <mxGeometry width="160" relative="1" as="geometry">
                        <mxPoint x="968.5" y="151" as="sourcePoint"/>
                        <mxPoint x="1750" y="170" as="targetPoint"/>
                        <Array as="points">
                            <mxPoint x="2380" y="30"/>
                        </Array>
                    </mxGeometry>
                </mxCell>
                <mxCell id="450" value="" style="endArrow=block;dashed=1;endFill=0;endSize=12;html=1;entryX=0.006;entryY=1.1;entryDx=0;entryDy=0;entryPerimeter=0;" edge="1" parent="1" target="367">
                    <mxGeometry width="160" relative="1" as="geometry">
                        <mxPoint x="970" y="170" as="sourcePoint"/>
                        <mxPoint x="2527" y="260" as="targetPoint"/>
                        <Array as="points">
                            <mxPoint x="1800" y="260"/>
                        </Array>
                    </mxGeometry>
                </mxCell>
                <mxCell id="452" value="Use" style="endArrow=open;endSize=12;dashed=1;html=1;entryX=0.5;entryY=0;entryDx=0;entryDy=0;exitX=1.012;exitY=-0.153;exitDx=0;exitDy=0;exitPerimeter=0;" edge="1" parent="1" target="388">
                    <mxGeometry width="160" relative="1" as="geometry">
                        <mxPoint x="2517" y="325" as="sourcePoint"/>
                        <mxPoint x="2813" y="450" as="targetPoint"/>
                        <Array as="points">
                            <mxPoint x="2260" y="510"/>
                        </Array>
                    </mxGeometry>
                </mxCell>
                <mxCell id="455" value="&lt;i&gt;ICommentRepository&lt;/i&gt;" style="swimlane;fontStyle=0;childLayout=stackLayout;horizontal=1;startSize=30;horizontalStack=0;resizeParent=1;resizeParentMax=0;resizeLast=0;collapsible=1;marginBottom=0;whiteSpace=wrap;html=1;rounded=0;" vertex="1" parent="1">
                    <mxGeometry x="2880" y="550" width="320" height="33" as="geometry"/>
                </mxCell>
                <mxCell id="457" value="" style="endArrow=none;html=1;entryX=-0.002;entryY=-0.006;entryDx=0;entryDy=0;entryPerimeter=0;exitX=0.999;exitY=0.003;exitDx=0;exitDy=0;exitPerimeter=0;" edge="1" parent="455">
                    <mxGeometry width="50" height="50" relative="1" as="geometry">
                        <mxPoint x="319.6799999999994" y="30.090000000000146" as="sourcePoint"/>
                        <mxPoint x="-0.6400000000003274" y="29.820000000000164" as="targetPoint"/>
                    </mxGeometry>
                </mxCell>
                <mxCell id="459" value="&lt;b&gt;CommentRepository&lt;/b&gt;" style="swimlane;fontStyle=0;childLayout=stackLayout;horizontal=1;startSize=30;horizontalStack=0;resizeParent=1;resizeParentMax=0;resizeLast=0;collapsible=1;marginBottom=0;whiteSpace=wrap;html=1;rounded=0;" vertex="1" parent="1">
                    <mxGeometry x="2827" y="707" width="310" height="60" as="geometry"/>
                </mxCell>
                <mxCell id="460" value="" style="endArrow=none;html=1;entryX=-0.002;entryY=-0.006;entryDx=0;entryDy=0;entryPerimeter=0;exitX=0.999;exitY=0.003;exitDx=0;exitDy=0;exitPerimeter=0;" edge="1" parent="459">
                    <mxGeometry width="50" height="50" relative="1" as="geometry">
                        <mxPoint x="309.69000000000005" y="30.089999999999918" as="sourcePoint"/>
                        <mxPoint x="-0.6199999999998909" y="29.81999999999971" as="targetPoint"/>
                    </mxGeometry>
                </mxCell>
                <mxCell id="461" value="&lt;span style=&quot;color: rgb(0, 0, 0);&quot;&gt;- _userManager: UserManager(User)&lt;/span&gt;" style="text;strokeColor=none;fillColor=none;align=left;verticalAlign=middle;spacingLeft=4;spacingRight=4;overflow=hidden;points=[[0,0.5],[1,0.5]];portConstraint=eastwest;rotatable=0;whiteSpace=wrap;html=1;rounded=0;" vertex="1" parent="459">
                    <mxGeometry y="30" width="310" height="30" as="geometry"/>
                </mxCell>
                <mxCell id="462" value="" style="endArrow=none;html=1;entryX=-0.002;entryY=-0.006;entryDx=0;entryDy=0;entryPerimeter=0;exitX=1;exitY=-0.02;exitDx=0;exitDy=0;exitPerimeter=0;" edge="1" parent="459">
                    <mxGeometry width="50" height="50" relative="1" as="geometry">
                        <mxPoint x="310" y="59.40000000000009" as="sourcePoint"/>
                        <mxPoint y="59.09000000000003" as="targetPoint"/>
                    </mxGeometry>
                </mxCell>
                <mxCell id="465" value="" style="endArrow=block;dashed=1;endFill=0;endSize=12;html=1;exitX=1;exitY=0.5;exitDx=0;exitDy=0;entryX=0.082;entryY=-0.009;entryDx=0;entryDy=0;entryPerimeter=0;" edge="1" parent="1" source="109" target="459">
                    <mxGeometry width="160" relative="1" as="geometry">
                        <mxPoint x="978.5" y="161" as="sourcePoint"/>
                        <mxPoint x="2527" y="260" as="targetPoint"/>
                        <Array as="points">
                            <mxPoint x="2410" y="10"/>
                            <mxPoint x="2890" y="20"/>
                        </Array>
                    </mxGeometry>
                </mxCell>
                <mxCell id="466" value="" style="endArrow=block;dashed=1;endFill=0;endSize=12;html=1;" edge="1" parent="1" source="455" target="459">
                    <mxGeometry width="160" relative="1" as="geometry">
                        <mxPoint x="3010" y="370" as="sourcePoint"/>
                        <mxPoint x="2970" y="665" as="targetPoint"/>
                    </mxGeometry>
                </mxCell>
                <mxCell id="467" value="Use" style="endArrow=open;endSize=12;dashed=1;html=1;entryX=0.75;entryY=0;entryDx=0;entryDy=0;exitX=0.189;exitY=1.085;exitDx=0;exitDy=0;exitPerimeter=0;" edge="1" parent="1" source="461" target="42">
                    <mxGeometry width="160" relative="1" as="geometry">
                        <mxPoint x="2827" y="534" as="sourcePoint"/>
                        <mxPoint x="2723" y="430" as="targetPoint"/>
                    </mxGeometry>
                </mxCell>
                <mxCell id="468" value="Use" style="endArrow=open;endSize=12;dashed=1;html=1;exitX=0.999;exitY=-0.134;exitDx=0;exitDy=0;entryX=0;entryY=0.25;entryDx=0;entryDy=0;exitPerimeter=0;" edge="1" parent="1" source="394" target="459">
                    <mxGeometry width="160" relative="1" as="geometry">
                        <mxPoint x="2229.9999999999995" y="902" as="sourcePoint"/>
                        <mxPoint x="2600" y="740" as="targetPoint"/>
                    </mxGeometry>
                </mxCell>
                <mxCell id="479" value="&lt;b&gt;PostViewModel&lt;/b&gt;" style="swimlane;fontStyle=0;childLayout=stackLayout;horizontal=1;startSize=30;horizontalStack=0;resizeParent=1;resizeParentMax=0;resizeLast=0;collapsible=1;marginBottom=0;whiteSpace=wrap;html=1;rounded=0;" vertex="1" parent="1">
                    <mxGeometry x="2380" y="1140" width="170" height="120" as="geometry"/>
                </mxCell>
                <mxCell id="480" value="+ Title: string" style="text;strokeColor=none;fillColor=none;align=left;verticalAlign=middle;spacingLeft=4;spacingRight=4;overflow=hidden;points=[[0,0.5],[1,0.5]];portConstraint=eastwest;rotatable=0;whiteSpace=wrap;html=1;rounded=0;" vertex="1" parent="479">
                    <mxGeometry y="30" width="170" height="30" as="geometry"/>
                </mxCell>
                <mxCell id="481" value="+ Text: string" style="text;strokeColor=none;fillColor=none;align=left;verticalAlign=middle;spacingLeft=4;spacingRight=4;overflow=hidden;points=[[0,0.5],[1,0.5]];portConstraint=eastwest;rotatable=0;whiteSpace=wrap;html=1;rounded=0;" vertex="1" parent="479">
                    <mxGeometry y="60" width="170" height="30" as="geometry"/>
                </mxCell>
                <mxCell id="482" value="+ File?: File" style="text;strokeColor=none;fillColor=none;align=left;verticalAlign=middle;spacingLeft=4;spacingRight=4;overflow=hidden;points=[[0,0.5],[1,0.5]];portConstraint=eastwest;rotatable=0;whiteSpace=wrap;html=1;rounded=0;" vertex="1" parent="479">
                    <mxGeometry y="90" width="170" height="30" as="geometry"/>
                </mxCell>
                <mxCell id="483" value="&lt;b&gt;CommentViewModel&lt;/b&gt;" style="swimlane;fontStyle=0;childLayout=stackLayout;horizontal=1;startSize=30;horizontalStack=0;resizeParent=1;resizeParentMax=0;resizeLast=0;collapsible=1;marginBottom=0;whiteSpace=wrap;html=1;rounded=0;" vertex="1" parent="1">
                    <mxGeometry x="2380" y="1300" width="170" height="90" as="geometry"/>
                </mxCell>
                <mxCell id="485" value="+ Text: string" style="text;strokeColor=none;fillColor=none;align=left;verticalAlign=middle;spacingLeft=4;spacingRight=4;overflow=hidden;points=[[0,0.5],[1,0.5]];portConstraint=eastwest;rotatable=0;whiteSpace=wrap;html=1;rounded=0;" vertex="1" parent="483">
                    <mxGeometry y="30" width="170" height="30" as="geometry"/>
                </mxCell>
                <mxCell id="486" value="+ File?: File" style="text;strokeColor=none;fillColor=none;align=left;verticalAlign=middle;spacingLeft=4;spacingRight=4;overflow=hidden;points=[[0,0.5],[1,0.5]];portConstraint=eastwest;rotatable=0;whiteSpace=wrap;html=1;rounded=0;" vertex="1" parent="483">
                    <mxGeometry y="60" width="170" height="30" as="geometry"/>
                </mxCell>
                <mxCell id="487" value="Use" style="endArrow=open;endSize=12;dashed=1;html=1;entryX=0;entryY=0.5;entryDx=0;entryDy=0;exitX=1;exitY=0.5;exitDx=0;exitDy=0;" edge="1" parent="1" source="399" target="480">
                    <mxGeometry width="160" relative="1" as="geometry">
                        <mxPoint x="2625" y="1000" as="sourcePoint"/>
                        <mxPoint x="2500" y="1013" as="targetPoint"/>
                    </mxGeometry>
                </mxCell>
                <mxCell id="488" value="Use" style="endArrow=open;endSize=12;dashed=1;html=1;entryX=0.005;entryY=0.207;entryDx=0;entryDy=0;exitX=1;exitY=0.5;exitDx=0;exitDy=0;entryPerimeter=0;" edge="1" parent="1" source="401" target="485">
                    <mxGeometry width="160" relative="1" as="geometry">
                        <mxPoint x="2242" y="1268.5" as="sourcePoint"/>
                        <mxPoint x="2376" y="1241.5" as="targetPoint"/>
                    </mxGeometry>
                </mxCell>
            </root>
        </mxGraphModel>
    </diagram>
</mxfile>